<svg xmlns:dc="http://purl.org/dc/elements/1.1/" xmlns:cc="http://creativecommons.org/ns#" xmlns:rdf="http://www.w3.org/1999/02/22-rdf-syntax-ns#" xmlns:svg="http://www.w3.org/2000/svg" xmlns="http://www.w3.org/2000/svg" xmlns:sodipodi="http://sodipodi.sourceforge.net/DTD/sodipodi-0.dtd" xmlns:inkscape="http://www.inkscape.org/namespaces/inkscape" version="1.1" x="0px" y="0px" viewBox="0 0 100 125"><g transform="translate(0,-952.36218)"><path d="m 38.309343,966.36216 c -3.3959,0 -6.42991,2.03031 -8.5448,5.12277 -1.26321,1.84712 -2.20399,4.10251 -2.76541,6.59088 -2.01713,0.84216 -3.80388,2.37891 -5.18902,4.40433 -1.79074,2.61847 -2.94778,6.0256 -3.26256,9.80823 -1.8113,0.88148 -3.42241,2.3294 -4.69188,4.18568 -2.114881,3.09246 -3.355781,7.29155 -3.355781,11.90105 0,0.3875 0.0136,0.7743 0.031,1.1558 -1.4187996,-0.3703 -3.1274196,0.5112 -4.0082896,1.3744 -0.90197,0.9067 -1.52253,2.1345 -1.52253,3.4672 -0.002,0.1504 0.0299,0.3011 0.0932,0.4373 1.49119,2.9982 3.38437,6.7746 5.5618896,9.8707 2.177511,3.0962 4.684801,5.6851 7.768001,5.6851 3.20387,0 5.73129,-1.0846 7.95443,-2.374 2.01649,-1.1695 3.80616,-2.4386 5.74832,-3.3735 1.23467,1.3465 2.7258,3.2099 4.47437,4.9665 1.52425,1.817 4.19482,3.7668 6.68044,3.7797 5.15613,0 9.83678,-3.6708 13.67168,-6.5909 1.5068,2.3721 3.4906,4.9985 5.77939,7.1843 2.57292,2.4572 5.43967,4.4044 8.38945,4.4044 3.57064,0.017 7.19116,-1.8522 10.22269,-4.1857 3.28845,-2.6639 5.29168,-4.8901 6.68048,-7.6841 1.74147,-4.5864 4.30745,-10.857 2.01968,-19.9288 2.61879,-3.7401 3.94886,-7.07167 4.50544,-10.62037 0.57712,-3.67965 0.43501,-7.5767 0.43501,-12.55703 0.0145,-0.60484 -0.62457,-1.13202 -1.21181,-0.99957 -0.57522,0.14793 -0.7062,0.63943 -0.7768,1.18699 -0.57109,-1.89895 -1.38562,-3.61917 -2.39254,-5.09154 -2.11489,-3.09246 -5.1489,-5.12277 -8.54481,-5.12277 -3.3959,0 -6.42992,2.03031 -8.5448,5.12277 -0.71564,1.04645 -1.33118,2.22475 -1.83325,3.49848 -0.52418,-2.85283 -1.53689,-5.42775 -2.95184,-7.49674 -2.11488,-3.09246 -5.14889,-5.12276 -8.5448,-5.12276 -3.39591,0 -6.42993,2.0303 -8.5448,5.12276 -0.77554,1.13402 -1.43427,2.4126 -1.95754,3.81084 -0.55577,-2.5778 -1.52725,-4.90818 -2.82755,-6.80953 -2.11489,-3.09246 -5.1489,-5.12277 -8.54481,-5.12277 z m 0,2.03037 c 2.64462,0 5.08539,1.58351 6.92906,4.27938 1.69162,2.47357 2.83567,5.87737 3.01399,9.68329 -1.76039,0.88767 -3.32715,2.30939 -4.56759,4.1232 -0.71564,1.04644 -1.33118,2.22475 -1.83325,3.49848 -0.52417,-2.85283 -1.53689,-5.42775 -2.95184,-7.49674 -2.11488,-3.09246 -5.14889,-5.12277 -8.5448,-5.12277 -0.40338,0 -0.7885,0.038 -1.18074,0.0937 0.53081,-1.81364 1.28429,-3.43122 2.20612,-4.77917 1.84366,-2.69587 4.28443,-4.27938 6.92905,-4.27938 z m 21.8747,2.99869 c 2.64462,0 5.08539,1.58351 6.92906,4.27939 1.84366,2.69588 3.04505,6.49092 3.04505,10.71408 0,1.29245 -0.13277,2.52411 -0.34179,3.71713 -1.65015,2.13817 -2.72654,5.30341 -3.20042,7.68415 -0.7656,0.98021 -1.6321,1.75265 -2.5479,2.34273 0.0395,-0.57222 0.0621,-1.16227 0.0621,-1.74923 0,-4.60956 -1.2409,-8.80861 -3.35577,-11.90107 -2.11489,-3.09246 -5.1489,-5.12277 -8.54481,-5.12277 -0.49973,0 -0.97809,0.0714 -1.46038,0.15618 0.52461,-2.23819 1.38989,-4.23877 2.48576,-5.8412 1.84366,-2.69588 4.28444,-4.27939 6.92906,-4.27939 z m 21.87469,3.99826 c 2.64462,0 5.08539,1.58351 6.92906,4.27939 1.84366,2.69588 3.04506,6.49092 3.04506,10.71408 0,3.52498 -0.85725,6.73896 -2.20612,9.27721 -0.38599,-3.53153 -1.5095,-6.71098 -3.20041,-9.1835 -2.11489,-3.09246 -5.1489,-5.12277 -8.5448,-5.12277 -2.12245,0 -4.1068,0.8055 -5.81047,2.15531 0.40754,-3.05198 1.44689,-5.77602 2.85862,-7.84033 1.84366,-2.69588 4.28444,-4.27939 6.92906,-4.27939 z m -51.70382,3.99826 c 2.64462,0 5.08539,1.58351 6.92906,4.27938 1.84366,2.69589 3.04505,6.49093 3.04505,10.71409 0,0.43302 -0.0375,0.85739 -0.0621,1.28069 -0.94805,0.78317 -1.80337,1.72259 -2.5479,2.81128 -2.11489,3.09242 -3.35578,7.29152 -3.35578,11.90102 0,2.7819 0.45071,5.4168 1.27395,7.7467 -0.83381,-0.903 -1.62926,-1.6877 -2.48576,-2.4052 0.73658,-2.2296 1.14966,-4.7165 1.14966,-7.3406 0,-4.6095 -1.2409,-8.80859 -3.35577,-11.90105 -2.11489,-3.09247 -5.1489,-5.12277 -8.54481,-5.12277 -0.62549,0 -1.23579,0.087 -1.83324,0.21865 0.40176,-3.07715 1.43738,-5.82461 2.85862,-7.90281 1.84366,-2.69587 4.28444,-4.27938 6.92906,-4.27938 z m 21.87469,3.99826 c 2.64462,0 5.08539,1.58351 6.92906,4.27938 1.84366,2.69589 3.04506,6.49093 3.04506,10.71409 0,4.22313 -1.2014,8.01823 -3.04506,10.71413 -0.31471,0.4601 -0.64675,0.8891 -0.9943,1.2806 0,-4.6095 -1.2409,-8.8086 -3.35578,-11.90102 -2.11488,-3.09247 -5.1489,-5.12277 -8.5448,-5.12277 -1.25964,0 -2.47275,0.27163 -3.60436,0.78091 0.50258,-2.4928 1.44433,-4.71592 2.64113,-6.46594 1.84365,-2.69587 4.28443,-4.27938 6.92905,-4.27938 z m 25.85192,3.99826 c 2.64462,0 5.08538,1.58351 6.92905,4.27938 1.84366,2.69589 3.04506,6.49092 3.04506,10.71406 -0.33392,4.6376 -1.42041,8.8548 -4.13258,12.0885 -0.29134,-3.8577 -1.44218,-7.3338 -3.26256,-9.9956 -2.11488,-3.0925 -5.14889,-5.12281 -8.5448,-5.12281 -1.36671,0 -2.67084,0.3425 -3.884,0.93711 0.32466,-3.37164 1.3893,-6.38187 2.92077,-8.62126 1.84366,-2.69587 4.28443,-4.27938 6.92906,-4.27938 z m -55.68105,5.99738 c 2.64463,0 5.08539,1.58351 6.92906,4.27939 1.84366,2.69587 3.04506,6.49087 3.04506,10.71407 0,2.2247 -0.34711,4.3271 -0.93216,6.2161 -0.341,-0.1288 -0.70026,-0.2187 -1.08752,-0.2187 -2.50657,0.2728 -4.47066,1.9444 -6.36976,3.1549 -2.3125,1.4682 -4.87885,2.8319 -7.51943,2.8425 -0.34755,-0.3915 -0.6796,-0.8205 -0.9943,-1.2807 -1.84366,-2.6959 -3.04506,-6.4909 -3.04506,-10.7141 0,-4.2232 1.2014,-8.0182 3.04506,-10.71407 1.84366,-2.69588 4.28443,-4.27939 6.92905,-4.27939 z m 23.86331,1.99913 c 2.64462,0 5.08539,1.58351 6.92906,4.27939 1.84365,2.69584 3.04505,6.49094 3.04505,10.71404 0,3.0478 -0.63662,5.8656 -1.67789,8.2152 -2.96412,1.9953 -7.5348,5.5022 -11.80736,5.7475 -1.26442,-0.7251 -2.43391,-1.8097 -3.41792,-3.2486 -1.84366,-2.6958 -3.04506,-6.4909 -3.04506,-10.7141 0,-4.2231 1.2014,-8.0182 3.04506,-10.71404 1.84366,-2.69588 4.28444,-4.27939 6.92906,-4.27939 z m 19.9793,5.65383 c -0.009,0.1749 -0.0204,0.354 -0.031,0.531 -0.98809,0.798 -1.87027,1.7778 -2.64112,2.905 -0.12973,0.1896 -0.2498,0.3956 -0.37287,0.5934 0.23023,-0.7861 0.41153,-1.5976 0.5593,-2.4364 0.88058,-0.3888 1.71279,-0.949 2.48576,-1.593 z m 5.87261,0.3436 c 2.64462,0 5.08539,1.5835 6.92906,4.2793 1.84366,2.6959 3.04505,6.491 3.04505,10.7142 0,4.1644 -1.1826,7.9007 -2.98291,10.5891 -0.33935,0.2504 -0.84019,0.4562 -1.18073,0.6247 -2.38774,1.0801 -5.06474,1.7804 -6.80477,1.7804 -2.48577,-0.013 -4.882,-2.5644 -7.05325,-4.1856 -1.20288,-2.4585 -1.92647,-5.5048 -1.92647,-8.8086 0,-4.2232 1.2014,-8.0183 3.04506,-10.7142 1.84366,-2.6958 4.28444,-4.2793 6.92906,-4.2793 z m -10.99949,8.3713 c -0.59228,2.0384 -0.90109,4.2807 -0.90109,6.6222 0,2.2585 0.28628,4.4238 0.83894,6.4034 -1.70784,-1.3822 -3.28976,-2.6877 -4.56758,-3.6859 0.72421,-1.7627 1.2465,-3.7205 1.49146,-5.81 1.04389,-0.8113 1.98935,-1.8185 2.79648,-2.9987 0.1174,-0.1716 0.22992,-0.3525 0.34179,-0.531 z m 27.65409,0.1562 c 0.95615,6.0813 -0.54183,9.9554 -2.1129,14.4312 -0.77242,-0.6065 -1.82341,-0.8257 -2.61005,-0.9683 -0.73298,0.1184 -1.04694,0.7036 -1.46038,1.187 0.83485,-2.2177 1.31658,-4.7402 1.39824,-7.403 2.3274,-1.9447 3.88245,-4.623 4.78509,-7.2469 z m -79.3889906,1.7492 c 1.0901896,3.3989 1.8906996,6.7205 4.1947206,9.246 0.77144,0.8318 1.72552,1.4681 2.85863,1.4681 3.31434,0 6.20552,-1.6301 8.60695,-3.1548 1.76628,-1.1434 3.32547,-2.3022 5.31331,-2.8425 2.12318,0.9911 3.73322,2.9954 5.2201,4.6542 1.9043,1.8825 4.13511,5.2804 6.71155,5.3414 5.20682,0 9.90472,-3.6956 12.86381,-5.7475 1.96378,1.5161 4.83381,3.9118 7.768,6.1536 2.53211,1.5895 4.72295,4.5789 8.20302,4.5917 2.23718,0 5.02885,-0.799 7.61264,-1.9679 2.30289,-1.0417 4.27522,-2.3776 5.56189,-3.9358 0.70184,0.098 1.0754,0.4019 1.61574,0.781 -0.96375,1.7596 -3.09569,4.2752 -5.77939,6.3409 -2.82189,2.1721 -6.16606,3.793 -9.01088,3.7796 -2.02175,0 -4.62367,-1.5513 -7.02228,-3.842 -2.39861,-2.2908 -4.61273,-5.2297 -6.05904,-7.6529 -0.27712,-0.4751 -0.98101,-0.6289 -1.42931,-0.3124 -3.99843,3.0147 -8.88867,6.8095 -13.3299,6.8095 -1.56253,-0.026 -3.46489,-1.3604 -5.28224,-3.1861 -1.81735,-1.8257 -3.49849,-4.015 -4.94045,-5.4976 -0.28117,-0.2923 -0.74895,-0.3837 -1.11859,-0.2186 -2.46186,1.0606 -4.47069,2.57 -6.55619,3.7796 -2.08551,1.2095 -4.19817,2.124 -6.96013,2.124 -1.88833,0 -4.10731,-1.9339 -6.15226,-4.8416 -1.979411,-2.8145 -3.7540506,-6.3624 -5.2201006,-9.3085 0.0488,-0.6316 0.35506,-1.3565 0.90109,-1.9054 0.41638,-0.4186 0.93157,-0.5132 1.42931,-0.656 z" style="text-indent:0;text-transform:none;direction:ltr;block-progression:tb;baseline-shift:baseline;color:#000000;enable-background:accumulate;" fill="#000000" fill-opacity="1" stroke="none" marker="none" visibility="visible" display="inline" overflow="visible"/></g><text x="0" y="115" fill="#000000" font-size="5px" font-weight="bold" font-family="'Helvetica Neue', Helvetica, Arial-Unicode, Arial, Sans-serif">Created by karina</text><text x="0" y="120" fill="#000000" font-size="5px" font-weight="bold" font-family="'Helvetica Neue', Helvetica, Arial-Unicode, Arial, Sans-serif">from the Noun Project</text></svg>