<svg xmlns="http://www.w3.org/2000/svg" xmlns:xlink="http://www.w3.org/1999/xlink" version="1.1" x="0px" y="0px" viewBox="0 0 100 125" enable-background="new 0 0 100 100" xml:space="preserve"><path d="M82.2132187,22.5256348c-0.7617188-0.7290039-1.7470703-1.328125-2.8613281-1.75  c0.8789063-0.8046875,1.5732422-1.7255859,2.0117188-2.6850586c0.7099609-1.5556641,0.6855469-3.043457-0.0703125-4.1904297  c-0.7548828-1.1469727-2.1054688-1.753418-3.8212891-1.7207031c-1.0546875,0.0234375-2.1757813,0.296875-3.2617188,0.7866211  c0.0527344-1.190918-0.1074219-2.3330078-0.4755859-3.3212891c-0.5976563-1.6020508-1.6669922-2.637207-3.0117188-2.9140625  c-2.2578125-0.4609375-4.5517578,1.3779297-5.6708984,4.3466797c-0.6875-0.7509155-1.4613647-1.3551636-2.2695923-1.791626  c-0.1782227-0.3890381-0.3981323-0.7554932-0.7069702-1.0643311c-1.6992188-1.7006836-4.7724609-1.3916016-7.4492188,0.5825195  c-0.4990234-3.2905273-2.4526367-5.6791992-4.8549805-5.6791992c-2.402832,0-4.3569336,2.3896484-4.8549805,5.6816406  c-1.0205078-0.7495117-2.1254883-1.2783203-3.2148438-1.527832c-1.1378174-0.2610474-2.1750488-0.1980591-3.0400391,0.1583862  C38.2558823,7.03302,37.7747421,6.7306519,37.2244492,6.557373c-1.3066406-0.4091797-2.7382813-0.0288086-4.034668,1.0766602  c-0.7973633,0.6796875-1.4892597,1.5927734-2.0190449,2.6503906c-1.8808594-2.534668-4.581543-3.671875-6.6137695-2.6108398  c-2.0322266,1.0600586-2.6464844,3.9228516-1.6469727,6.9150391c-3.1206055-0.4599609-5.8330078,0.6455078-6.5209961,2.8310547  c-0.4106436,1.3051758-0.0283203,2.7382813,1.0766602,4.034668c0.6796875,0.7978516,1.5932617,1.4892578,2.6518555,2.0195313  c-0.949707,0.7075195-1.7280273,1.5478516-2.2578125,2.4526367c-0.8613281,1.4692383-0.9873047,2.9472656-0.3544922,4.1606445  c0.6323242,1.2133789,1.9160156,1.9560547,3.6142578,2.0913086c1.0415039,0.0844727,2.1777344-0.0722656,3.3007813-0.4462891  c-0.2002563,1.3552246-0.0894775,2.6201172,0.2608032,3.6887817c-0.0762939,0.8184814,0.2277832,1.6741943,0.9120483,2.4074097  c0.3564453,0.3823242,0.7963867,0.7202148,1.2949219,0.9990234c-1.331543,1.3095703-1.8134766,2.9892578-1.0820313,4.25  c0.484375,0.8359375,1.4331055,1.3378906,2.6025391,1.3789063c0.5263672,0.0126953,1.0722656-0.0546875,1.6230469-0.2099609  c-0.0053711,0.5712891,0.0693359,1.1220703,0.2241211,1.6210938c0.078064,0.2523193,0.1818848,0.4816284,0.2974243,0.6976318  c-0.0440674,0.197876-0.0672607,0.401123-0.0654907,0.6090088c0.0087891,1.046875,0.6376953,2.03125,1.7255878,2.7001953  c0.5375977,0.3310547,1.1669922,0.5771484,1.8481445,0.7265625c-1.1206055,1.8173828-1.1845703,3.8076172-0.0200195,4.953125  c0.746582,0.7353516,1.8881836,0.9853516,3.1303711,0.6904297c0.6147461-0.1464844,1.2338867-0.4189453,1.8203125-0.7929688  c0.4912109,2.0673828,1.8432617,3.515625,3.4667969,3.515625c0.0073242,0,0.0146484,0,0.0219727,0  c1.3308105-0.0119019,2.4569092-1.0036011,3.0791626-2.4949341c0.022644,0.010437,0.0404053,0.0290527,0.0634155,0.0388794  c0.3016357,0.1300049,0.6260986,0.1763306,0.9568481,0.1853027l-0.1618042,2.9235229l-8.1168213-1.0892944  c-0.5439453-0.0742188-1.0976563,0.0917969-1.5112305,0.4541016c-0.4023438,0.3525391-0.6333008,0.8583984-0.6333008,1.3886719  v6.9697266c0,0.53125,0.2314453,1.0371094,0.6342773,1.3896484c0.3486328,0.3046875,0.7949219,0.4697266,1.2539063,0.4697266  c0.0854492,0,0.1713867-0.0058594,0.2568359-0.0175781l1.1625977-0.1560669l-4.6274414,11.6218872  c-0.1474609,0.3701172-0.0605469,0.7929688,0.2202148,1.0751953c0.2817383,0.2832031,0.7055664,0.3720703,1.0742188,0.2255859  l2.4897461-0.9775391l1.0800781,2.6650391c0.152832,0.3769531,0.5195313,0.6240234,0.9267578,0.6240234  c0.0009766,0,0.0019531,0,0.0029297,0c0.4086914-0.0009766,0.7749023-0.2509766,0.9262695-0.6298828l4.1021118-10.3018188  l-1.2446899,22.4883423c-0.0302734,0.5517578,0.3916016,1.0234375,0.9433594,1.0537109  c0.0185547,0.0009766,0.0375977,0.0019531,0.0561523,0.0019531c0.5268555,0,0.9677734-0.4121094,0.9975586-0.9443359  l1.5297241-27.6386719h1.0591431V93.092041c0,0.5527344,0.4477539,1,1,1s1-0.4472656,1-1V68.2922363h1.059082l1.5302734,27.6386719  c0.0292969,0.5322266,0.4697266,0.9443359,0.9970703,0.9443359c0.0185547,0,0.0371094-0.0009766,0.0566406-0.0019531  c0.5507813-0.0302734,0.9736328-0.5019531,0.9423828-1.0537109l-1.244751-22.4903564l4.1031494,10.303833  c0.1503906,0.3789063,0.5175781,0.6289063,0.9257813,0.6298828c0.0009766,0,0.0019531,0,0.0029297,0  c0.4072266,0,0.7734375-0.2470703,0.9267578-0.6240234l1.0800781-2.6650391l2.4892578,0.9775391  c0.3681641,0.1464844,0.7919922,0.0585938,1.0742188-0.2255859c0.28125-0.2822266,0.3671875-0.7050781,0.2197266-1.0751953  l-4.6278076-11.6218872l1.1629639,0.1560669c0.0859375,0.0117188,0.171875,0.0175781,0.2578125,0.0175781  c0.4589844,0,0.9052734-0.1650391,1.2529297-0.4697266c0.4033203-0.3525391,0.6347656-0.8583984,0.6347656-1.3896484V60.373291  c0-0.5302734-0.2304688-1.0371094-0.6337891-1.3886719c-0.4130859-0.3623047-0.9648438-0.53125-1.5107422-0.4541016  l-8.1168213,1.0891113l-0.1577759-2.8496094c0.2457275-0.0230103,0.4874878-0.0686035,0.71698-0.1604004  c0.1425781-0.057251,0.265625-0.1488037,0.3947144-0.2301025c0.6306152,1.5557861,1.7967529,2.5875244,3.1619263,2.5875244  c0.0078125,0,0.015625,0,0.0224609,0c1.6318359-0.0146484,2.9697266-1.4892578,3.4277344-3.5751953  c0.59375,0.3662109,1.2167969,0.6269531,1.8339844,0.7626953c1.2480469,0.2724609,2.3837891,0.0039063,3.1181641-0.7421875  c1.1445313-1.1630859,1.0478516-3.1494141-0.1015625-4.9501953c2.0751953-0.4931641,3.5273438-1.8554688,3.5146484-3.4873047  V46.973877c-0.0013428-0.1499634-0.02771-0.2944336-0.0530396-0.4389648  c0.1090698-0.208252,0.2097778-0.4260864,0.2844849-0.6674805c0.1552734-0.5,0.2294922-1.0507813,0.2246094-1.6210938  c0.5507813,0.1552734,1.0986328,0.2226563,1.6230469,0.2099609c1.1689453-0.0410156,2.1181641-0.5429688,2.6025391-1.3789063  c0.7304688-1.2612305,0.2490234-2.940918-1.0820313-4.25c0.4980469-0.2792969,0.9384766-0.6171875,1.2949219-0.9985352  c0.0680542-0.072998,0.1118774-0.1531982,0.1728516-0.2285156c0.7128906-0.010437,1.3743896-0.2049561,1.9492188-0.5839844  c1.9238281-1.2661133,2.2441406-4.1923828,0.9365234-7.0834961c1.1845703,0.0527344,2.3310547-0.1079102,3.3183594-0.4760742  c1.6015625-0.597168,2.6367188-1.6669922,2.9140625-3.0117188C83.9768906,25.0998535,83.4495468,23.7077637,82.2132187,22.5256348z   M38.1570663,67.2199707V60.529541l7.3256836,0.982605v4.6955566L38.1570663,67.2199707z M40.619957,80.5803223  l-0.5166016-1.2744141c-0.1572266-0.3876953-0.5317383-0.6240234-0.9272461-0.6240234  c-0.121582,0-0.2451172,0.0224609-0.3647461,0.0693359l-1.262207,0.4951172l4.1900635-10.5228882l3.805481-0.5108032  L40.619957,80.5803223z M54.5188828,61.5076294l7.3251953-1.0122681v6.6904297l-7.3251953-0.982605V61.5076294z   M58.2614365,68.7235107l4.1900635,10.5228271l-1.2617188-0.4951172c-0.5107422-0.2011719-1.0859375,0.046875-1.2919922,0.5546875  l-0.5166016,1.2744141l-4.9242554-12.3674927L58.2614365,68.7235107z M38.8495102,9.6838379  c0.0131836-0.0142822,0.0188599-0.0345459,0.0326538-0.0483398c0.2406616-0.2405396,0.5368042-0.3755493,0.8443604-0.4474487  c0.5528564-0.1292725,1.144165-0.0477905,1.5281982,0.0397339c1.1801758,0.2705078,2.4604492,1.0288086,3.512207,2.0805664  c0.0864258,0.0869141,0.1757813,0.184082,0.3066406,0.3256836c0.2841797,0.3076172,0.7314453,0.4067383,1.1191406,0.2441406  c0.3876953-0.1611328,0.6328125-0.5478516,0.6142578-0.9672852c-0.0068359-0.1503906-0.0136719-0.3017578-0.0136719-0.4418945  c0-2.847168,1.3916016-5.3442383,2.9780273-5.3442383s2.9780273,2.4970703,2.9780273,5.3442383  c0,0.1411133-0.0063477,0.2939453-0.0126953,0.4448242c-0.0175781,0.4194336,0.2592773,0.7719727,0.6474609,0.9321289  c0.3867188,0.1611328,0.8642578,0.0288086,1.1484375-0.2802734c0.0810547-0.0874023,0.1601563-0.1743164,0.2441406-0.2573242  c0.9578857-0.9576416,2.0799561-1.6253052,3.1164551-1.953186c1.0981445-0.3474121,2.090332-0.3001709,2.6882935,0.2261963  c0.0241089,0.0212402,0.057251,0.031311,0.0800171,0.0541382c0.2779541,0.2780762,0.437561,0.6570435,0.4917603,1.0993042  c0.1603394,1.3088379-0.6206055,3.1744995-2.0662231,4.6730347c-0.0361328,0.0374756-0.0653076,0.0783691-0.1022949,0.1153564  c-0.0898438,0.090332-0.1904297,0.1826172-0.3203125,0.3022461c-0.1376953,0.1264038-0.2206421,0.2871704-0.2645874,0.4581909  c-0.0548096,0.2134399-0.0446167,0.4442139,0.0448608,0.6594849c0.1080322,0.2611694,0.3181763,0.4464111,0.5812378,0.5414429  c0.0429077,0.0106812,0.0839233,0.0194092,0.1268921,0.0301514c-0.0020752-0.0028687-0.0039063-0.0056152-0.0059814-0.0084839  c0.0935059,0.0252075,0.1852417,0.0545654,0.2910156,0.052124c0.1328125-0.0058594,0.265625-0.0117188,0.3896484-0.0117188  c0.0917358,0,0.1818848,0.0053711,0.2728271,0.0082397c2.0070801,0.0628662,3.8013306,0.8068848,4.6120605,1.8082886  c0.2380371,0.2940674,0.3881836,0.6099854,0.4369507,0.9369507c0.0111084,0.074646,0.0219116,0.149353,0.0219116,0.2250366  c0,0.7090454-0.5010986,1.3780518-1.3070068,1.9024048c-0.3087769,0.2009277-0.6617432,0.3804932-1.0498657,0.5325928  c-0.8654175,0.3391113-1.8999634,0.5430298-2.9868774,0.5430298c-0.1328125,0-0.2753906-0.0063477-0.4453125-0.0131836  c-0.421875-0.0180664-0.7900391,0.2426758-0.9501953,0.6303711c-0.0296021,0.0715942-0.0403442,0.1469727-0.0517578,0.2219849  c-0.0413818,0.2720947,0.0334473,0.5482178,0.2015381,0.7694092c0.036499,0.0479736,0.0679321,0.0996094,0.112915,0.1409302  c0.1005859,0.0927734,0.2021484,0.1855469,0.2929688,0.2768555c0.8947144,0.8947144,1.5286255,1.9312744,1.8781128,2.9093018  c-0.5318604,0.6876221-0.8312988,1.6541138-0.8323975,2.7457886c0,0.0188599-0.0029297,0.036438-0.0027466,0.0553589  c-0.0227661-0.0064087-0.0449219-0.0087891-0.067688-0.0149536c-1.0870972-0.293457-2.1317139-0.2496948-2.9442749,0.116333  c-0.7362061-0.3574219-1.4776001-0.8666382-2.1471558-1.5161743c-0.0316772-0.0307617-0.0663452-0.0552979-0.0977173-0.0866699  c-0.0791016-0.078125-0.1591797-0.1650391-0.3037109-0.3227539c-0.1269531-0.137207-0.2886353-0.2255859-0.4606323-0.2749023  c-0.2129517-0.0610962-0.4430542-0.0585938-0.6575317,0.0302734c-0.1950684,0.0810547-0.3536377,0.2196045-0.4613647,0.3903809  c-0.105835,0.1678467-0.1625977,0.3668213-0.1538696,0.5744629c0.0063477,0.1513672,0.0126953,0.3041992,0.0126953,0.4448242  c0,2.847168-1.3916016,5.3442383-2.9780273,5.3442383s-2.9780273-2.4970703-2.9780273-5.3442383  c0-0.1396484,0.0068359-0.2915039,0.0136719-0.4418945c0.0128174-0.2900391-0.1164551-0.5479736-0.3216553-0.7362061  c-0.0918579-0.0842896-0.1941528-0.1586304-0.3140869-0.2086182c-0.1166992-0.0483398-0.2407227-0.0712891-0.3647461-0.0712891  c-0.2880859,0-0.5771484,0.1240234-0.7758789,0.3393555c-0.0893555,0.097168-0.1787109,0.1943359-0.2636719,0.2797852  c-0.168457,0.168457-0.3480225,0.3150024-0.5253906,0.4658203c-0.492981,0.4190063-1.0090332,0.7648926-1.5305176,1.0361938  c-0.284729-0.0986938-0.588623-0.1661377-0.9129028-0.1934814c-0.331665-0.0278931-0.6795654-0.0175781-1.0377808,0.0305176  c-0.2597656,0.0349121-0.5227661,0.0834351-0.7897949,0.1589966c0.0103149-1.2323608-0.3610229-2.3083496-1.0151978-3.0109863  c-0.0475464-0.0510254-0.097229-0.098999-0.1478271-0.1459351c0.3704834-0.8700562,0.9609985-1.767334,1.7470093-2.5535278  c0.0805664-0.0805664,0.1704102-0.1625977,0.3261719-0.3061523c0.3076172-0.2841797,0.3901367-0.7299805,0.2294922-1.1171875  s-0.5512695-0.6323242-0.9804688-0.6152344c-0.1411133,0.0058594-0.2822266,0.012207-0.4140625,0.012207  c-1.0869751,0-2.121582-0.2038574-2.9869995-0.5429077c-0.3533936-0.1384277-0.6755371-0.3007202-0.9639282-0.4800415  c-0.8553467-0.5319214-1.3933105-1.2216187-1.3933105-1.9550781c0-0.2615356,0.0736694-0.5167236,0.199707-0.7622681  c0.1409912-0.2747803,0.3540039-0.5354614,0.6273193-0.776001c0.9645386-0.8490601,2.6642456-1.4402466,4.5172119-1.4402466  c0.1240234,0,0.2573242,0.0058594,0.4448242,0.0136719c0.4082031,0.0141602,0.7768555-0.2539063,0.9375-0.6416016  c0.1606445-0.387207,0.0351563-0.859375-0.2734375-1.1435547c-0.0932617-0.0859375-0.1865234-0.1713867-0.2700195-0.2548828  c-0.1171265-0.1171265-0.21521-0.2435913-0.3238525-0.3652344c-0.2339478-0.2619019-0.4468994-0.5298462-0.6396484-0.8059082  c-0.2312622-0.3312988-0.4327393-0.6657104-0.6004639-1.0026245C38.2607651,11.8807983,38.1462021,10.4434204,38.8495102,9.6838379z   M67.1693954,20.5400391c0.0632324-0.0046997,0.1262207-0.0222168,0.1893311-0.0222168  c0.46875,0,0.9287109,0.1293945,1.3378906,0.3813477c0.5810547,0.3588867,0.9882813,0.9223633,1.1464844,1.5869141  c0.1572266,0.6650391,0.046875,1.3510742-0.3125,1.9326172c-0.3583984,0.581543-0.921875,0.9887695-1.5859375,1.1464844  c-0.6679688,0.159668-1.3515625,0.0463867-1.9335938-0.3115234c-0.4591675-0.2835693-0.8037109-0.6978149-1.008667-1.1858521  C66.3338242,23.1742554,67.163475,21.9386597,67.1693954,20.5400391z M56.0566635,35.6230469  c-0.3548584,0.2216187-0.6828003,0.5212402-0.9684448,0.8928833c-0.2108765-0.1908569-0.4417114-0.3580322-0.7099609-0.4727173  c-0.3600464-0.1539307-0.7393188-0.2172852-1.1239014-0.2039185c0.5028076-0.7245483,0.9022827-1.5975952,1.1584473-2.592041  c0.3175659,0.211792,0.6713257,0.3832397,1.0641479,0.5032959C55.4860458,34.366272,55.6805649,35.0093384,56.0566635,35.6230469z   M44.3003159,32.6456299c0.2061768-0.1299438,0.4140015-0.2506714,0.6165161-0.3997803  c0.2132568,1.4091187,0.7052612,2.6350708,1.3734131,3.5966187c-0.1448364,0.0303955-0.2927856,0.0480347-0.4310303,0.1035767  c-0.380127,0.1524048-0.7000732,0.4121704-0.9772339,0.7255859c-0.2853394-0.4016724-0.6203003-0.7277832-0.9875488-0.9768066  C44.5429916,34.677002,44.7153549,33.5710449,44.3003159,32.6456299z M26.5188808,29.2121582  c-0.1791992-0.1499023-0.4082031-0.2241211-0.6381836-0.2241211c-0.1831055,0-0.3671875,0.046875-0.5283203,0.1396484  c-0.1069336,0.0615234-0.2133789,0.1235352-0.315918,0.1767578c-1.2475586,0.6508789-2.621582,0.9702148-3.7583008,0.8803711  c-0.5712891-0.0454102-1.5913086-0.2387695-1.9995117-1.0224609c-0.4086914-0.7836914,0.0166016-1.7304688,0.3061523-2.2246094  c0.5786133-0.9873047,1.6264648-1.9267578,2.8764648-2.578125c0.1074219-0.0561523,0.2250977-0.1113281,0.3774414-0.1826172  c0.3798828-0.1782227,0.5908203-0.5791016,0.5541992-0.9975586c-0.0366211-0.4179688-0.3476563-0.7729492-0.7529297-0.8823242  c-0.1274414-0.034668-0.2558594-0.0688477-0.3720703-0.1054688c-1.3422852-0.421875-2.5375977-1.1635742-3.2802734-2.034668  c-0.371582-0.4365234-0.9560547-1.2939453-0.6904297-2.1367188c0.3955078-1.2583008,2.8125-2.0375977,5.6450195-1.1464844  c0.1118164,0.0351563,0.2299805,0.078125,0.3984375,0.1386719c0.394043,0.1435547,0.8349609,0.0195313,1.1035156-0.3032227  c0.269043-0.3217773,0.3066406-0.78125,0.097168-1.1445313c-0.0703125-0.1210938-0.1411133-0.2431641-0.2016602-0.3598633  c-1.3730469-2.6333008-1.0268555-5.1479492,0.1420898-5.7578125c1.1679688-0.6069336,3.4291992,0.5463867,4.8022461,3.1816406  c0.0595703,0.1147461,0.1186523,0.2412109,0.1831055,0.378418c0.1787109,0.3798828,0.5834961,0.5830078,1,0.5444336  c0.418457-0.0366211,0.7763691-0.3579102,0.8852558-0.7631836c0.0322266-0.1196289,0.0644531-0.2392578,0.1000977-0.3515625  c0.421875-1.3422852,1.1635742-2.5380859,2.034668-3.2802734c0.4370117-0.3725586,1.2988281-0.956543,2.1367188-0.690918  c0.1616821,0.0508423,0.3146362,0.1373291,0.4580078,0.2515869c-1.1099854,1.5912476-0.8771973,3.9953613,0.5130615,6.2507935  c0.0340576,0.2432251,0.1481934,0.4735718,0.3458252,0.6397095c0.0322266,0.0270386,0.071228,0.0410156,0.1061401,0.0632935  c-2.0218506,0.3071289-3.6968384,1.166626-4.6918945,2.3391724c-0.5442505-0.1386719-1.1210938-0.1850586-1.7116108-0.1055908  c-2.4819336,0.3276367-4.2348633,2.6137695-3.9072266,5.0961914c0.3007813,2.2817383,2.2563477,3.9467773,4.4985371,3.9467773  c0.1967773,0,0.3964844-0.0126953,0.597168-0.0395508c1.2026367-0.1586914,2.2714844-0.7758789,3.0092773-1.7382813  c0.0792847-0.1034546,0.1341553-0.2188721,0.2037354-0.3273315c0.6184082,0.2381592,1.2852173,0.4281616,2.0057373,0.5372925  c-0.4869995,0.6608276-0.8704834,1.34552-1.1495361,2.0275879c-1.1399536,0.0844727-2.2509155,0.9136353-2.9852295,2.223877  c-0.4003906-0.4077148-0.8422852-0.7436523-1.3041992-0.9873047c-1.0351582-0.5458984-2.1088886-0.5800781-2.9443378-0.0957031  c-1.2602539,0.7314453-1.6762695,2.4277344-1.1704102,4.2255859c-0.8074951,0.0067749-1.5436401,0.1715088-2.1584473,0.4609375  c-0.0184326-0.7696533,0.0806885-1.6243286,0.3664551-2.5327148c0.0327148-0.1040039,0.0722656-0.2133789,0.1396484-0.3999023  C26.986166,29.9074707,26.8406582,29.4812012,26.5188808,29.2121582z M34.2925034,23.8908691  c-0.0142822,0.0197754-0.0233765,0.0421143-0.038269,0.0615234c-0.4130859,0.5385742-1.0112305,0.8842773-1.684082,0.9731445  c-1.3891621,0.1801758-2.6684589-0.7978516-2.8515644-2.1865234c-0.1831055-1.3891602,0.7978516-2.668457,2.1865234-2.8520508  c0.1123066-0.0146484,0.2236347-0.0219727,0.3344746-0.0219727c0.0718384,0,0.1407471,0.0134888,0.2114258,0.0194702  c-0.0386353,0.2109375-0.0795898,0.4215698-0.0795898,0.640686C32.3714218,21.8400879,33.1045761,23.0097046,34.2925034,23.8908691z   M32.7835312,46.083252c-0.1851807-0.0490723-0.3538818-0.2208862-0.4857788-0.4813843  c-0.0493164-0.0973511-0.0942993-0.204834-0.131897-0.3262329c-0.0695801-0.2247925-0.1028442-0.4797363-0.1182861-0.7445679  c-0.0263062-0.4507446,0.0164795-0.9398804,0.1466064-1.4282837c0.0185547-0.0722656,0.043457-0.1484375,0.0673828-0.2255859  l0.7905273-2.5864258l-2.4892597,1.5712891c-0.6899414,0.3989258-1.4584961,0.6088867-2.0849609,0.5952148  c-0.4667969-0.0166016-0.8100586-0.15625-0.9418945-0.3837891c-0.2734375-0.4711914,0.2475586-1.6884766,1.6875-2.5234375  l2.5888672-1.3984375l-1.4520874-0.3216553l-1.4092407-0.3121338c-0.1309814-0.0348511-0.2554321-0.081604-0.3809814-0.1262817  c-0.6132813-0.2183228-1.1550903-0.5415649-1.5150146-0.9274292c-0.3183594-0.3413086-0.4619141-0.6831055-0.3945313-0.9375  c0.0205078-0.0767212,0.0703125-0.1514282,0.1348267-0.223938c0.3779907-0.4248657,1.4679565-0.7315674,2.840271-0.3678589  l0.8187256,0.2440186l1.0576172,0.3152466l0.9298115,0.2771606l-0.5275288-0.8340454L31.312582,33.986084l-0.4299316-0.6796875  c-0.8349609-1.4394531-0.6831055-2.7548828-0.2114258-3.0283203c0.2285156-0.1303711,0.5961914-0.0830078,1.0078125,0.1347656  c0.3787861,0.1998901,0.7488422,0.5285645,1.074831,0.9276123c0.1580811,0.1935425,0.3088989,0.3983154,0.4393311,0.6231689  c0.0380859,0.0668945,0.0766602,0.140625,0.1147461,0.2133789l1.1539917,2.1898193l0.1194458,0.2266846l0.0152588-0.0686646  l0.2792969-1.2556152l0.3504639-1.5756226c0.2506714-0.9428711,0.7121582-1.605957,1.1563721-1.9729004  c0.3137817-0.2592163,0.6191406-0.375061,0.8348389-0.317627c0.0640259,0.0170288,0.1273804,0.0514526,0.1887817,0.0994263  c0.3787842,0.2958984,0.6769409,1.1550903,0.522522,2.2789307c-0.0264282,0.1921997-0.0651855,0.3915405-0.1199951,0.5977173  l-0.1755371,0.5784912l-0.663269,2.1856079l-0.0195923,0.0645142l0.0652466-0.0415039l2.1830444-1.3885498l0.2390137-0.1519775  c0.196228-0.1138306,0.3890991-0.2059326,0.5783691-0.28479c0.3536987-0.1473389,0.6895752-0.2363281,0.9957275-0.2784424  c0.4024048-0.0554199,0.7476807-0.0292969,1.0072632,0.0528564c0.2128906,0.0673828,0.3718262,0.1687622,0.4464722,0.2979736  c0.0184326,0.0317993,0.0239258,0.0748291,0.0350952,0.1130371c0.1133423,0.3877563-0.140625,1.0812378-0.8189697,1.7348633  c-0.0415039,0.039978-0.0935059,0.078064-0.1381226,0.1176147c-0.2200928,0.1950684-0.468689,0.3855591-0.7659912,0.5579224  l-0.7987671,0.4265747l-1.8081665,0.9655151l0.6438599,0.1431274l0.4365845,0.0971069l0.9973755,0.2216797l0.8015747,0.1782227  c0.0687866,0.0183105,0.1278076,0.0435181,0.1937256,0.0639648c1.473999,0.4573975,2.2304688,1.4234009,2.09729,1.9277344  c-0.0135498,0.0510864-0.0458374,0.1010742-0.0792847,0.1507568c-0.3406982-0.012146-0.6748657-0.0020752-0.9924927,0.0479736  c-0.5220947,0.0821533-0.9763794,0.2626953-1.3705444,0.5007935c-0.0673218-0.0101929-0.1390991-0.0291138-0.208252-0.0426025  c-0.1098633-0.0214844-0.2169189-0.0372314-0.3308716-0.0675659l-0.6737671-0.199707l-0.6002197-0.1779175l-1.5228882-0.4514771  l0.6425781,1.0161133l0.9130859,1.4438477c0.2321167,0.4001465,0.3815308,0.7875366,0.4754639,1.1488647  c0.0092773,0.0667114,0.0308228,0.1331787,0.0447388,0.2001953c0.1708984,0.8410645,0.0070801,1.4953003-0.3082886,1.6782837  c-0.4682617,0.2753906-1.6875-0.2480469-2.5229492-1.6865234l-1.3916016-2.6098633l-0.1720581,0.7733765l-0.3399658,1.52771  l-0.1290894,0.5802612c-0.0819702,0.3087769-0.1912231,0.5792847-0.3103638,0.8292236  C33.9631577,45.673645,33.2083969,46.2015991,32.7835312,46.083252z M42.4641953,56.967041c-0.0019531,0-0.0039063,0-0.0053711,0  c-0.7744141,0-1.6494141-1.3652344-1.6645508-3.2021484l0.0063477-0.28125  c0.0131836-0.4189453-0.2558594-0.7802734-0.6445313-0.9375c-0.1142578-0.0458984-0.2353516-0.0673828-0.355957-0.0673828  c-0.2905273,0-0.5805664,0.1259766-0.7792969,0.3457031c-0.0493164,0.0537109-0.0981445,0.1083984-0.152832,0.1630859  c-0.6494141,0.6611328-1.4365234,1.1386719-2.1591797,1.3105469c-0.5605469,0.1328125-1.0200195,0.0712891-1.2651367-0.1699219  c-0.5527344-0.5439453-0.2070313-2.1318359,1.0839844-3.4443359c0.0537109-0.0546875,0.1137695-0.1113281,0.203125-0.1953125  c0.3051758-0.2861328,0.3720703-0.7314453,0.2089844-1.1162109c-0.1630859-0.3867188-0.5776367-0.6367188-0.9946289-0.6083984  l-0.2299805,0.0078125c-0.9331055-0.0029297-1.8208008-0.2109375-2.4536133-0.6005859  c-0.046936-0.0288696-0.0824585-0.0609741-0.1254883-0.0910645c1.1264648-0.0992432,2.2220459-0.9275513,2.9492188-2.2233887  c1.3095703,1.3310547,2.9873047,1.8144531,4.2490234,1.0820313c0.3942261-0.2290039,0.6956177-0.5606689,0.9221802-0.9522705  c0.0761108,0.0631104,0.1413574,0.1332397,0.2213745,0.1934814c-1.6044922,1.1484375-2.3769531,2.8222656-1.809082,4.2392578  c0.5683594,1.4169922,2.2856445,2.09375,4.2368164,1.8154297c-0.1015625,0.6132813-0.1108398,1.2158203-0.0229492,1.7744141  c0.0297241,0.1890869,0.0891113,0.3571777,0.1404419,0.5311279C43.8299789,55.9627075,43.1205673,56.9612427,42.4641953,56.967041z   M47.4827499,66.2922363v-4.8681641h5.0361328l0.0009766,4.8681641H47.4827499z M48.432518,59.4240723l0.1764526-3.1880493  c0.1321411,0.0019531,0.263916,0.0023804,0.3918457-0.0088501v3.1968994H48.432518z M51.0008163,59.4240723v-3.0883179  c0.1290894,0.0148315,0.2634277,0.0145264,0.3979492,0.0153809l0.170105,3.072937H51.0008163z M55.1380234,50.0598145  l-2.1402588-1.0089111l-0.5570068-0.2625732l0.618042,1.3654785l0.5059814,1.1179199  c0.0341797,0.0771484,0.0703125,0.1552734,0.1005859,0.2294922c0.2111816,0.52771,0.3222656,1.0722046,0.3422241,1.5774536  c0.0098877,0.2493286,0.0044556,0.4918823-0.0355835,0.7125854c-0.0908203,0.5009766-0.2998047,0.8515625-0.5742188,0.9619141  c-0.0253906,0.0098267-0.0563354,0.008606-0.0836182,0.0148315c-0.2687378,0.0610962-0.6217651-0.0424805-0.9954834-0.3146362  c-0.0084839-0.0061646-0.0162964-0.0153198-0.0247803-0.0216064c-0.0705566-0.0525513-0.1376953-0.1187744-0.2061157-0.1802368  c-0.3244629-0.2915039-0.6246948-0.6679688-0.8668213-1.1118164c-0.0811157-0.1486816-0.1526489-0.3059082-0.2201538-0.4656982  c-0.0127563-0.0300903-0.0292969-0.057373-0.0415039-0.0878296c-0.0292969-0.0722656-0.0566406-0.1523438-0.0883789-0.2421875  l-0.1237183-0.3435669l-0.4083862-1.1338501l-0.3381958-0.9390259l-0.0452271-0.1255493l-0.3137817,0.8188477l-0.4387817,1.1448364  l-0.2020264,0.5272217l-0.1030273,0.2688599c-0.0285034,0.0666504-0.0650635,0.1269531-0.0960693,0.1918335  c-0.2539063,0.5320435-0.5835571,1.00177-0.954895,1.3517456c-0.0415039,0.0391235-0.0848999,0.0703125-0.1272583,0.1063843  c-0.0744019,0.0632935-0.1470947,0.1338501-0.2236328,0.1869507c-0.2698975,0.1870728-0.5262451,0.2858276-0.750061,0.3076782  c-0.0184937,0.00177-0.0379028,0.0061035-0.0558472,0.0067139c-0.1018677,0.00354-0.197937-0.0055542-0.2800293-0.0409546  c-0.1523438-0.0646362-0.2790527-0.2113037-0.3779297-0.4108276c-0.0773926-0.1560669-0.1390991-0.342041-0.1738281-0.5628052  c-0.0440674-0.2797241-0.0375977-0.5910034-0.0016479-0.9116821c0.0501709-0.4473267,0.1665039-0.9160767,0.3610229-1.3705444  l0.7407227-1.5509644l0.5488281-1.149231l-0.4976196,0.2233276l-2.2328491,1.0022583  c-1.5253906,0.6123047-3,0.359375-3.2514648-0.2666016c-0.2504883-0.625,0.6416016-1.8271484,2.1645508-2.4384766  l2.8085938-1.0087891l-2.5605469-0.9658203c-0.0737305-0.0283203-0.1479492-0.0556641-0.2216797-0.0878906  c-0.7802734-0.3330078-1.449707-0.84375-1.8364258-1.4013672c-0.1199341-0.1729736-0.1989136-0.3393555-0.2521362-0.4972534  c-0.0150146-0.0852051-0.0371704-0.1715698-0.0565186-0.2575684c-0.0106201-0.1134644-0.0049438-0.2195435,0.0299072-0.3103638  c0.0024414-0.0064087,0.0016479-0.0145264,0.0043335-0.020752c0.1162109-0.2714844,0.4711914-0.4726563,0.9746094-0.5517578  c0.3739624-0.0578613,0.8004761-0.0357666,1.239624,0.0471802c0.3464966,0.0654297,0.7003784,0.1660156,1.0455322,0.3141479  l2.7016602,1.2832031l-1.1274414-2.4907227c-0.0361328-0.0795898-0.0732422-0.1606445-0.1030273-0.2348633  c-0.0299683-0.074646-0.0488892-0.1507568-0.0751343-0.2260742c-0.1254883-0.3601074-0.2113037-0.7224731-0.2492676-1.0736084  c-0.0378418-0.3503418-0.0372314-0.6885986,0.0172729-0.9903564c0.0157471-0.0869751,0.0394897-0.1629028,0.0621338-0.2402954  c0.1077881-0.3686523,0.2857666-0.6303101,0.5125732-0.7211304c0.2182007-0.0894775,0.517334-0.0302124,0.8399048,0.1502686  c0.0787354,0.0440674,0.1578369,0.0895386,0.2387085,0.1485596c0.2451782,0.1783447,0.4765625,0.4197388,0.689209,0.6950684  c0.236145,0.3057251,0.4428711,0.6588135,0.6091309,1.0426636c0.0189209,0.0436401,0.0427856,0.0836182,0.0605469,0.1279907  l0.6964722,1.9358521l0.3132935,0.8707886l0.3001709-0.7955322l0.6661377-1.7655029  c0.027832-0.074707,0.0556641-0.1494141,0.0859375-0.2197266c0.0118408-0.027771,0.0269775-0.0513306,0.0392456-0.0786133  c0.1661377-0.3706055,0.3649292-0.6999512,0.5817261-0.9814453c0.2814941-0.3655396,0.5880127-0.6455078,0.8839111-0.8325195  c0.3753662-0.2373047,0.730957-0.3267212,0.9829102-0.2182617c0.2469482,0.1055908,0.4260254,0.4089355,0.5164795,0.8249512  c0.0778198,0.3577881,0.0889282,0.7987061,0.0108032,1.2828979c-0.0547485,0.3396606-0.1552124,0.6980591-0.3023071,1.0599365  c-0.0115967,0.0285645-0.0184326,0.0565796-0.0306396,0.085144l-1.237793,2.6787109l2.6762695-1.2001953  c0.4169312-0.1672363,0.8272095-0.2647705,1.2125854-0.3128662c0.8826294-0.1101074,1.614502,0.0636597,1.9187012,0.4044189  c0.0446167,0.0499878,0.0842285,0.1019287,0.109314,0.1585693c0.0026245,0.0059204,0.0089722,0.010498,0.0113525,0.0164795  c0.0911865,0.2270508,0.0275269,0.5310059-0.1584473,0.8543091c-0.3259277,0.5667114-1.0358276,1.1945801-2.0046387,1.5831909  l-2.8085938,1.0097656l2.5605469,0.9658203c0.0742188,0.0283203,0.1484375,0.0556641,0.2207031,0.0878906  c1.5117188,0.6455078,2.3759766,1.8681641,2.1113281,2.4873047C58.1292343,50.4875488,56.6487656,50.7062988,55.1380234,50.0598145z   M64.3225937,48.6604004l-0.296875-0.0068359c-0.0078125,0-0.0166016,0-0.0253906,0  c-0.4072266,0-0.7626953,0.2607422-0.9150391,0.6416016c-0.1552734,0.3886719-0.0380859,0.8457031,0.2724609,1.1269531  l0.1777344,0.1630859c1.3115234,1.2900391,1.6835938,2.8720703,1.1396484,3.4248047  c-0.2412109,0.2460938-0.703125,0.3154297-1.2617188,0.1914063c-0.7265625-0.1591797-1.5214844-0.6240234-2.1855469-1.2773438  c-0.0488281-0.0478516-0.0986328-0.1015625-0.1923828-0.2011719c-0.2851563-0.3046875-0.7314453-0.3701172-1.1162109-0.2070313  c-0.3857422,0.1630859-0.6279297,0.578125-0.6083984,0.9960938l0.0078125,0.2275391  c0.015625,1.8388672-0.8398438,3.2207031-1.6142578,3.2275391c-0.0019531,0-0.0039063,0-0.0058594,0  c-0.7734375,0-1.6484375-1.3652344-1.6640625-3.2021484c-0.0009766-0.0869141,0.0029297-0.1826172,0.0058594-0.2763672  c0.0023193-0.0619507-0.0137939-0.1188354-0.0236206-0.1775513c0.0046387-0.3062744-0.0134888-0.619873-0.0584106-0.9376831  c1.9404297,0.3232422,3.6748047-0.3154297,4.2773438-1.71875c0.5996094-1.4042969-0.1347656-3.0957031-1.7109375-4.2802734  c0.1082153-0.0775146,0.2025146-0.1629028,0.3029785-0.2449341c0.2171631,0.3289795,0.4932861,0.6082764,0.8395996,0.8093872  c1.2617188,0.7314453,2.9404297,0.25,4.2490234-1.0820313c0.6864624,1.2241821,1.7006226,2.0367432,2.760376,2.2070313  C66.1030502,48.4057007,65.2795029,48.6522217,64.3225937,48.6604004z M73.0743637,36.3049927  c-0.0411987,0.0529785-0.0788574,0.1057739-0.1287231,0.1591187c-0.1929321,0.2067871-0.442688,0.3937378-0.722168,0.5599365  c-0.3486328,0.2073975-0.7468262,0.3803711-1.1772461,0.494751l-2.8251953,0.6728516l2.5576172,1.3583984  c1.4384766,0.8349609,1.9599609,2.0522461,1.6865234,2.5234375c-0.1318359,0.2275391-0.4746094,0.3671875-0.9414063,0.3837891  c-0.6201172,0.0224609-1.3945313-0.1953125-2.0849609-0.5952148l-2.4824219-1.5112305l0.8515625,2.7558594  c0.1160889,0.4345703,0.1628418,0.8713379,0.1539917,1.2817383c-0.0068359,0.3181763-0.0443115,0.6219482-0.1266479,0.887207  c-0.0240479,0.0780029-0.0539551,0.1448975-0.0830688,0.2131958c-0.1375122,0.3224487-0.324585,0.5388184-0.5341187,0.5944214  c-0.1100464,0.0322876-0.2484131,0.0101318-0.3973999-0.046936c-0.1120605-0.074646-0.2340088-0.1445313-0.3691406-0.2098999  c-0.3450317-0.2635498-0.7054443-0.7192383-0.9777832-1.3403931c-0.093811-0.2138672-0.1804199-0.4405518-0.2478638-0.6937866  l-0.1719971-0.7374878l-0.3629761-1.5560303l-0.1349487-0.5785522l-1.3623047,2.6015625  c-0.8339844,1.4375-2.0507813,1.9628906-2.5224609,1.6865234c-0.2235718-0.1295776-0.3703613-0.4978638-0.3789063-0.9980469  c0.1519165-0.3933105,0.2229614-0.7922363,0.2109985-1.1862793c0.0938721-0.2731934,0.2129517-0.5557251,0.3817749-0.8469238  c0.0371094-0.0644531,0.0810547-0.1318359,0.1240234-0.2001953l0.9457397-1.4976196l0.5083618-0.8051147l-1.7875977,0.5549927  l-0.46875,0.1455078l-0.5698242,0.1769409c-0.1500244,0.039917-0.2929688,0.06427-0.4358521,0.0888672  c-0.1009521,0.017395-0.1990967,0.0314941-0.2958984,0.0418701c-0.578125-0.2799072-1.2694092-0.4278564-2.0253296-0.4196777  c-0.1090698-0.0951538-0.1912231-0.1964111-0.2194824-0.3013916c-0.1303711-0.4917603,0.5864868-1.4220581,1.9852295-1.8913574  c0.0998535-0.0335083,0.1940308-0.0709839,0.3009033-0.0993652l0.6807861-0.1560669l0.9981079-0.2288818l0.7749023-0.1776733  l0.4212036-0.0965576l-0.6513672-0.3445435l-1.4298706-0.7562866l-0.517395-0.2736816  c-0.3167725-0.1838379-0.5814209-0.3876343-0.8105469-0.5964966c-0.5247803-0.4783936-0.8245239-0.9863281-0.9124146-1.3879395  c-0.022644-0.1033936-0.0324097-0.1989746-0.0274048-0.2852173c0.0056152-0.0968018,0.0231934-0.1846924,0.0628662-0.2532959  c0.2392578-0.4133301,1.2844238-0.5790405,2.5115356-0.0478516c0.147644,0.0639038,0.298645,0.1419678,0.4505005,0.2268677  c0.0233154,0.0130615,0.0458374,0.0213013,0.0692139,0.0348511l0.0982056,0.062439l0.8474731,0.5387573l1.0947876,0.6959229  l0.4819946,0.3063965l-0.5810547-1.8394165l-0.2470703-0.7821655c-0.0014648-0.0046387-0.0026245-0.0090332-0.0040894-0.0136719  c-0.0229492-0.0734863-0.0458984-0.1469727-0.06427-0.2158203c-0.1506958-0.5664063-0.1828613-1.081604-0.1439209-1.5229492  c0.0151367-0.1722412,0.0393066-0.3342896,0.0751953-0.480896c0.0040894-0.0168457,0.0073853-0.0344238,0.0117188-0.0509033  c0.1364746-0.5159302,0.3875732-0.8530273,0.6478271-0.9223022c0.1053467-0.0270996,0.2352295-0.005249,0.3735962,0.0437622  c0.5475464,0.1939087,1.2770996,0.9633179,1.6185913,2.2477417c0.0185547,0.0693359,0.0341797,0.1445313,0.0527344,0.2319336  l0.609375,2.6181641l1.3701172-2.5791016c0.8349609-1.4384766,2.0507813-1.9599609,2.5224609-1.6870117  c0.3103027,0.1795654,0.4749146,0.8140259,0.3178711,1.6351318c-0.0610962,0.3193359-0.1742554,0.6655884-0.3459473,1.0271606  c-0.050415,0.1061401-0.1002808,0.2122192-0.161438,0.3202515c-0.0092163,0.0162964-0.0148926,0.0319214-0.024353,0.0482178  l-1.5625,2.4960938l0.7947998-0.2461548l1.267395-0.3925171l0.1009521-0.03125l0.6464233-0.2001953  c0.156311-0.0413818,0.3132324-0.0692749,0.4696045-0.0946655c0.6132202-0.0997314,1.2137451-0.0819092,1.6993408,0.0682983  c0.0112305,0.003479,0.0197144,0.0084229,0.0307617,0.0120239c0.2683716,0.0872192,0.4725342,0.2074585,0.6083984,0.3455811  c0.0805054,0.0819092,0.1439819,0.1680908,0.168457,0.2605591C73.39785,35.7417603,73.2967148,36.0187988,73.0743637,36.3049927z   M81.7405624,26.0407715v0.0004883c-0.1796875,0.871582-1.1132813,1.3398438-1.6542969,1.5415039  c-1.078125,0.4023438-2.4931641,0.46875-3.8759766,0.1831055c-0.1142578-0.0234375-0.2363281-0.0541992-0.4140625-0.0986328  c-0.4111328-0.1000977-0.8300781,0.0693359-1.0654297,0.4169922c-0.234375,0.3476563-0.2236328,0.8115234,0.0224609,1.1518555  c0.0810547,0.1123047,0.1630859,0.2250977,0.234375,0.3325195c1.6425781,2.4956055,1.5517578,5.0473633,0.4433594,5.7768555  c-0.0361938,0.0239258-0.0753174,0.0372925-0.1126099,0.0574341c-0.0130615-0.130188-0.0107422-0.262085-0.0446167-0.3894653  c-0.2480469-0.9345703-1.03125-1.6689453-2.1494141-2.0151367c-0.4990234-0.1542969-1.0517578-0.2324219-1.6201172-0.2236328  c0.5058594-1.7983398,0.0898438-3.4951172-1.1699219-4.2265625c-1.2597656-0.7285156-2.9404297-0.2495117-4.2490234,1.0820313  c-0.8327637-1.4847412-2.1445313-2.359436-3.440979-2.2175903c-0.2792358-0.6837769-0.6637573-1.3703613-1.1517944-2.0328979  c0.6074219-0.09198,1.1702881-0.2483521,1.7069092-0.4332275c0.3696289,0.8261719,0.9747925,1.5241089,1.7628174,2.0093994  c0.7285156,0.4492188,1.5488281,0.6801758,2.3837891,0.6801758c0.3525391,0,0.7080078-0.0415039,1.0595703-0.125  c1.1845703-0.2807617,2.1884766-1.0063477,2.828125-2.0424805c0.6386719-1.0361328,0.8359375-2.2592773,0.5546875-3.4438477  c-0.2802734-1.1845703-1.0058594-2.1889648-2.0419922-2.8276367c-0.9500732-0.5860596-2.0548706-0.78125-3.1473999-0.5957031  c-0.8895874-1.4718018-2.7595215-2.5759888-5.1074829-2.9316406c0.8950806-1.2144775,1.4276733-2.505127,1.6061401-3.7161865  c0.4801636,0.440918,0.9283447,0.9642944,1.3108521,1.5452881c0.0595703,0.0898438,0.1181641,0.1889648,0.2236328,0.362793  c0.2158203,0.359375,0.6396484,0.534668,1.046875,0.4555664c0.4121094-0.0795898,0.7314453-0.4165039,0.7988281-0.8300781  c0.0224609-0.137207,0.0439453-0.2753906,0.0693359-0.3989258c0.6035156-2.9262695,2.4599609-4.6640625,3.7724609-4.3984375  c0.8710938,0.1791992,1.3398438,1.1132813,1.5410156,1.6538086c0.4013672,1.078125,0.46875,2.4912109,0.1816406,3.8803711  c-0.0253906,0.1293945-0.0615234,0.2675781-0.0957031,0.4042969c-0.1044922,0.4072266,0.0839844,0.8168945,0.4316406,1.0537109  c0.3476563,0.2387695,0.8320313,0.2119141,1.1728516-0.0322266c0.0996094-0.0712891,0.1982422-0.1420898,0.2958984-0.206543  c1.1816406-0.777832,2.5185547-1.2387695,3.6689453-1.2641602c0.5888672-0.0043945,1.6191406,0.078125,2.1074219,0.8212891  c0.4892578,0.7431641,0.1601563,1.734375-0.0791016,2.2592773c-0.4785156,1.0463867-1.4306641,2.0927734-2.6123047,2.8710938  c-0.0917969,0.0605469-0.1933594,0.1210938-0.3642578,0.2236328c-0.3583984,0.2167969-0.5205078,0.6386719-0.4404297,1.050293  s0.4316406,0.7333984,0.8457031,0.8007813c0.1259766,0.0200195,0.2529297,0.0405273,0.3691406,0.0644531  c1.3857422,0.2856445,2.6572266,0.9057617,3.4892578,1.7011719C81.2483749,24.369873,81.9202499,25.1691895,81.7405624,26.0407715z   M45.4939804,22.5183105c0.4978638,1.0678711,1.3654785,1.8795776,2.442688,2.335144  c0.0753784,0.0318604,0.1424561,0.0770874,0.2199097,0.1052856c0.5268555,0.1923828,1.0732422,0.2875977,1.6181641,0.2875977  c0.6791992,0,1.355957-0.1484375,1.9902344-0.4438477c0.4396362-0.204895,0.8227539-0.4871826,1.1716919-0.8046265  c0.2451782-0.2230835,0.4647827-0.4686279,0.6575317-0.7388916c0.1986694-0.2786255,0.3692627-0.576416,0.5053711-0.8977051  c0.0320435-0.0756836,0.0774536-0.1431274,0.105835-0.2208862c0.4005127-1.0991211,0.3630981-2.2770996-0.0668945-3.3547363  c-0.0334473-0.0837402-0.0509644-0.1712646-0.0893555-0.2536621c-0.1043091-0.223938-0.2368164-0.4277954-0.371582-0.6293335  c-0.1903687-0.284729-0.4036865-0.5493164-0.6485596-0.7835693c-0.4661255-0.446106-1.0180054-0.8007202-1.6424561-1.0280151  c-1.3902588-0.5073853-2.8563232-0.298584-4.0354004,0.4091187c-0.4507446,0.2705688-0.8551025,0.6112671-1.1973877,1.0230103  c-0.3375244,0.4060669-0.6254272,0.8627319-0.81604,1.3867188c-0.0144043,0.0396118-0.0177612,0.0809326-0.0311279,0.1207275  c-0.1889038,0.5634155-0.2767944,1.1451416-0.2486572,1.7236938c0.0181274,0.3729248,0.09552,0.7402954,0.203064,1.102356  C45.3273544,22.079895,45.3938828,22.3034058,45.4939804,22.5183105z M47.2166367,19.5944824  c0.4018555-1.1025391,1.4472656-1.7885742,2.5576172-1.7885742c0.3085938,0,0.621582,0.0527344,0.9277344,0.1640625  c0.3167725,0.1154175,0.5932007,0.2900391,0.8348389,0.4979858c0.2778931,0.2391357,0.5027466,0.5269775,0.6630859,0.8495483  c0.3203125,0.6442871,0.3916626,1.4106445,0.1265869,2.1383057c-0.0228271,0.0625-0.0582275,0.1173706-0.085144,0.1774902  c-0.1525269,0.34021-0.3684082,0.6383057-0.6383057,0.8856812c-0.2029419,0.1859741-0.4265137,0.3509521-0.6832886,0.47052  c-0.6582031,0.3061523-1.3955078,0.3374023-2.0786133,0.090332c-0.6826172-0.2485352-1.2275391-0.7480469-1.5341797-1.40625  S46.9681015,20.2770996,47.2166367,19.5944824z"/><text x="0" y="115" fill="#000000" font-size="5px" font-weight="bold" font-family="'Helvetica Neue', Helvetica, Arial-Unicode, Arial, Sans-serif">Created by Llisole</text><text x="0" y="120" fill="#000000" font-size="5px" font-weight="bold" font-family="'Helvetica Neue', Helvetica, Arial-Unicode, Arial, Sans-serif">from the Noun Project</text></svg>