<svg xmlns:dc="http://purl.org/dc/elements/1.1/" xmlns:cc="http://creativecommons.org/ns#" xmlns:rdf="http://www.w3.org/1999/02/22-rdf-syntax-ns#" xmlns:svg="http://www.w3.org/2000/svg" xmlns="http://www.w3.org/2000/svg" xmlns:sodipodi="http://sodipodi.sourceforge.net/DTD/sodipodi-0.dtd" xmlns:inkscape="http://www.inkscape.org/namespaces/inkscape" version="1.1" x="0px" y="0px" viewBox="0 0 128 160" enable-background="new 0 0 128 128" xml:space="preserve"><path style="" d="M 43.699219 11.5 C 31.399219 11.5 19.699219 16.799609 11.699219 26.099609 C 3.6992188 35.299609 0.20039063 47.4 1.9003906 59.5 L 3 67.400391 C 3.5 70.700391 6.2003906 73.2 9.4003906 73.5 C 13.800391 74.4 18.299609 75.199219 23.099609 75.699219 L 19.800781 94.099609 C 18.800781 99.599609 20.300391 105.29922 23.900391 109.69922 C 27.600391 114.09922 32.899609 116.59961 38.599609 116.59961 L 48.800781 116.59961 C 54.500781 116.59961 59.9 114.09922 63.5 109.69922 C 67.1 105.39922 68.599609 99.699609 67.599609 94.099609 L 64.300781 75.800781 C 67.600781 75.400781 70.800391 74.900391 73.900391 74.400391 C 73.400391 75.800391 73.4 77.299609 74 78.599609 C 74.2 78.999609 74.399219 79.299609 74.699219 79.599609 C 74.799219 79.699609 74.899609 79.9 75.099609 80 L 75.199219 80.099609 L 75.5 80.400391 C 77.3 82.000391 79.200781 83.599219 81.300781 85.199219 L 74.699219 93 C 72.299219 95.8 71.3 99.499609 72 103.09961 C 72.6 106.79961 74.899609 109.90078 78.099609 111.80078 L 83.400391 114.80078 C 85.300391 115.90078 87.499219 116.5 89.699219 116.5 C 91.099219 116.5 92.6 116.19922 94 115.69922 C 97.5 114.39922 100.20039 111.70078 101.40039 108.30078 L 104.80078 98.800781 C 107.20078 99.800781 109.50078 100.70039 111.80078 101.40039 L 111.90039 101.40039 L 112 101.40039 C 112.5 101.60039 113.09922 101.69922 113.69922 101.69922 C 115.29922 101.69922 116.90039 100.99922 117.90039 99.699219 L 120.90039 95.900391 C 125.60039 90.000391 127.5 82.300391 126 74.900391 C 124.6 67.400391 119.90078 60.9 113.30078 57 C 109.30078 54.7 104.69961 53.400391 100.09961 53.400391 C 94.899609 53.400391 90.000781 54.899609 85.800781 57.599609 C 85.700781 58.199609 85.699609 58.800391 85.599609 59.400391 L 84.800781 64.800781 C 88.700781 60.800781 94.199609 58.400391 100.09961 58.400391 C 103.79961 58.400391 107.50078 59.400781 110.80078 61.300781 C 116.20078 64.400781 119.99961 69.700781 121.09961 75.800781 C 122.29961 81.800781 120.8 88.000781 117 92.800781 L 114 96.599609 C 113.8 96.799609 113.6 96.699609 113.5 96.599609 C 103.6 87.499609 91.599219 80.6 78.699219 76.5 C 78.599219 76.5 78.6 76.400391 78.5 76.400391 L 78.5 76.199219 L 79.800781 73.099609 C 82.200781 72.199609 84.000391 70.000391 84.400391 67.400391 L 85.5 59.5 C 87.2 47.5 83.599219 35.299609 75.699219 26.099609 C 67.699219 16.799609 55.999219 11.5 43.699219 11.5 z M 43.699219 16.5 C 54.599219 16.5 64.900391 21.200391 71.900391 29.400391 C 78.900391 37.500391 82.1 48.200781 80.5 58.800781 L 79.400391 66.699219 C 79.200391 67.899219 77.999219 68.8 76.699219 68.5 C 65.899219 66.1 54.699609 64.900391 43.599609 64.900391 C 32.499609 64.900391 21.4 66.1 10.5 68.5 L 9.9003906 68.5 C 9.7003906 68.5 9.5007813 68.400391 9.3007812 68.400391 C 8.6007812 68.100391 8.0003906 67.499219 7.9003906 66.699219 L 6.8007812 58.800781 C 5.4007813 48.200781 8.5 37.500391 15.5 29.400391 C 22.6 21.200391 32.899219 16.5 43.699219 16.5 z M 43.900391 21.5 C 34.500391 21.5 25.600391 25.599609 19.400391 32.599609 C 13.300391 39.599609 10.600391 48.8 11.900391 58 L 12.199219 60.300781 C 12.399219 61.500781 13.399219 62.400391 14.699219 62.400391 L 15.099609 62.400391 C 16.499609 62.200391 17.399219 60.899609 17.199219 59.599609 L 16.900391 57.300781 C 15.800391 49.600781 18.099219 41.800391 23.199219 35.900391 C 28.399219 29.900391 35.900391 26.5 43.900391 26.5 C 45.300391 26.5 46.400391 25.4 46.400391 24 C 46.400391 22.6 45.300391 21.5 43.900391 21.5 z M 100.09961 63.5 C 94.599609 63.5 89.5 66.200781 86.5 70.800781 C 85.7 71.900781 86.099219 73.499219 87.199219 74.199219 C 87.599219 74.499219 88.099609 74.599609 88.599609 74.599609 C 89.399609 74.599609 90.199219 74.2 90.699219 73.5 C 92.799219 70.3 96.299609 68.5 100.09961 68.5 C 101.49961 68.5 102.59961 67.4 102.59961 66 C 102.59961 64.6 101.49961 63.5 100.09961 63.5 z M 43.800781 69.75 C 48.675781 69.75 53.550391 70 58.400391 70.5 L 62.800781 95 C 63.500781 99 62.399219 103.20039 59.699219 106.40039 C 56.999219 109.60039 53.000781 111.5 48.800781 111.5 L 38.699219 111.5 C 34.499219 111.5 30.500781 109.60039 27.800781 106.40039 C 25.100781 103.20039 24.000781 99.000391 24.800781 94.900391 L 29.199219 70.5 C 34.049219 70 38.925781 69.75 43.800781 69.75 z M 87.699219 85.400391 C 92.499219 87.600391 97.100391 90.300781 101.40039 93.300781 L 96.699219 106.59961 C 95.999219 108.69961 94.300781 110.3 92.300781 111 C 90.200781 111.8 87.9 111.60039 86 110.40039 L 80.699219 107.40039 C 78.799219 106.30039 77.4 104.39922 77 102.19922 C 76.6 99.999219 77.199609 97.799219 78.599609 96.199219 L 87.699219 85.400391 z M 32.082031 93.775391 C 30.892578 93.831445 29.874219 94.663281 29.699219 95.800781 C 29.099219 99.400781 30.599219 101.99922 31.699219 103.19922 C 32.699219 104.39922 35.000781 106.5 38.800781 106.5 C 40.200781 106.5 41.300781 105.4 41.300781 104 C 41.300781 102.6 40.099219 101.5 38.699219 101.5 C 37.099219 101.5 36 100.7 35.5 100 C 35 99.3 34.399609 98.199219 34.599609 96.699219 C 34.799609 95.299219 33.899609 94.000781 32.599609 93.800781 C 32.424609 93.775781 32.251953 93.767383 32.082031 93.775391 z M 84.181641 98.492188 C 83.387695 98.573242 82.636719 99.050781 82.199219 99.800781 C 81.499219 101.00078 81.999219 102.49922 83.199219 103.19922 L 88.5 106.19922 C 88.9 106.39922 89.299219 106.5 89.699219 106.5 C 90.599219 106.5 91.400391 105.99922 91.900391 105.19922 C 92.500391 103.99922 92.100391 102.50078 90.900391 101.80078 L 85.599609 98.800781 C 85.149609 98.538281 84.658008 98.443555 84.181641 98.492188 z " fill="#000000"/><text x="0" y="143" fill="#000000" font-size="5px" font-weight="bold" font-family="'Helvetica Neue', Helvetica, Arial-Unicode, Arial, Sans-serif">Created by Kokota</text><text x="0" y="148" fill="#000000" font-size="5px" font-weight="bold" font-family="'Helvetica Neue', Helvetica, Arial-Unicode, Arial, Sans-serif">from the Noun Project</text></svg>