<svg xmlns="http://www.w3.org/2000/svg" xmlns:xlink="http://www.w3.org/1999/xlink" version="1.1" x="0px" y="0px" viewBox="0 0 100 125" enable-background="new 0 0 100 100" xml:space="preserve"><g><path fill="#000000" d="M70.80176,17.67236c-3.20508-2.75244-7.6084-4.53125-11.21777-4.53223h-0.00098   c-5.95703,0-8.72363,8.51611-10.10449,13.13477c-0.98535-0.49512-2.07617-0.83936-3.28516-0.93018   c-3.24121-0.24365-7.51855,0.18701-9.49121,3.61621c-1.25391,2.17822-1.37012,4.63867-1.48145,7.01807   c-0.03809,0.8042-0.07422,1.56348-0.15234,2.30127c-0.18164,1.69873-0.36816,3.39697-0.55469,5.0957   c-0.03613-0.04834-0.07422-0.0957-0.11035-0.14404c-1.15137-1.55615-2.15332-3.26221-3.12305-4.91162   c-0.84082-1.43115-1.71094-2.91064-2.68848-4.31836c-0.18359-0.26416-0.4834-0.42383-0.80469-0.4292   c-0.35742-0.01318-0.62598,0.14355-0.81836,0.40234l-0.12305,0.16504c-0.0459,0.06152-0.08496,0.12842-0.11523,0.19873   c-0.12109,0.27881-2.91895,6.8833,1.51465,11.55371l0.46484,0.48926c1.7998,1.89697,2.88672,3.0415,4.8916,5.01904   c0.49023,0.4834,1.00586,0.96143,1.52637,1.44385c1.85156,1.71582,3.76562,3.48975,4.66699,5.71777   c1.74707,4.32275,0.96387,8.4209,0.13477,12.75928c-0.22754,1.19336-0.46387,2.42773-0.65039,3.68457   c-0.66406,4.4751,0.79297,9.85059,5.56055,11.07617c1.16895,0.30078,2.14941,0.41797,2.96777,0.41797   c1.81934,0,2.8291-0.57617,3.34277-1.01758c0.11523,0.00293,0.23242,0.01025,0.34668,0.01025   c1.97168,0,3.73828-0.44043,5.18848-1.25928c0.30664,0.05518,0.78223,0.11914,1.35449,0.11914   c1.44824,0,3.49121-0.40967,4.85059-2.40527c2.1875-3.21045,1.09473-8.30713,0.52344-10.34961   c-0.88965-3.17627-1.48438-9.76611-0.88477-12.64355c0.01074-0.05322-0.00098-0.10352,0.00098-0.15576   c0.65527-0.68994,1.33203-1.40381,1.88477-2.15967c0.41113-0.5625,0.77832-1.23047,1.10547-1.97363   c0.00586-0.00293,0.01172-0.00342,0.0166-0.00635c1.89258-1.01221,3.85547-2.17236,5.23242-4.2251   c1.06348-1.58447,1.68555-3.35938,2.28711-5.07568l0.20117-0.57422c1.02637-2.89404,1.77539-6.0708,2.29004-9.71143   C76.67871,27.07959,75.12598,21.38818,70.80176,17.67236z M36.30957,45.35645c0.25293-2.28711,0.50293-4.57568,0.74707-6.86426   c0.08496-0.79639,0.12402-1.62158,0.16113-2.41943c0.10156-2.1416,0.20508-4.35596,1.21777-6.11426   c1.4541-2.52734,4.94336-2.81787,7.60742-2.61963c4.50977,0.33838,7.20605,5.1582,7.78027,7.09961   c-2.74121,6.32324-3.08984,18.99951-2.91406,20.92969c0.23242,2.56006,0.39941,6.52051-0.12598,10.84912   c-0.33984,2.80273-1.93359,7.68115-2.90625,10.48486c-0.10352-0.47412-0.19238-0.96191-0.25098-1.47461l-0.26172-2.34961   c-0.36914-3.32861-0.64355-5.79102-1.15625-8.37402c3.13574-5.39941,3.91211-12.27686,2.30078-20.44873   c-0.04688-0.2373-0.10645-0.47363-0.15625-0.71094c0.08496-0.08203,0.16113-0.17529,0.21484-0.28857   c0.10742-0.23047,2.62305-5.69678,1.34863-10.70166c-0.13672-0.53564-0.68359-0.85889-1.21582-0.72266   c-0.53516,0.13623-0.8584,0.68066-0.72168,1.21582c0.63965,2.51367,0.12207,5.26123-0.42383,7.12744   c-0.50098-1.92334-1.05469-3.83105-1.60449-5.69922c-0.22656-0.7666-0.45117-1.53174-0.67188-2.29492   c-0.15332-0.53076-0.70508-0.8335-1.23828-0.68359c-0.53027,0.15332-0.83691,0.70801-0.68359,1.23828   c0.22168,0.76709,0.44824,1.53564,0.6748,2.30566c0.9248,3.14014,1.88184,6.3877,2.51465,9.60107   c0.02734,0.13867,0.04102,0.26953,0.06738,0.40723c-1.31738-2.50244-3.03711-6.48682-4.44727-10.20264   c-0.19531-0.51611-0.77637-0.77441-1.28906-0.58008c-0.5166,0.19629-0.77637,0.77344-0.58008,1.29004   c0.7627,2.00977,4.6748,12.10938,6.79297,13.5835c0.02637,0.01855,0.05664,0.02539,0.08398,0.04102   c0.11914,1.38818,0.16504,2.7334,0.11816,4.02197c-2.27734-3.64404-6.45215-9.5166-7.04688-10.35156   c-0.32129-0.4502-0.94434-0.55518-1.39551-0.2334c-0.44922,0.32031-0.55371,0.94482-0.2334,1.39453   c2.9707,4.16553,7.60645,10.90332,8.20215,12.39453c0.03125,0.07715,0.07617,0.14307,0.12207,0.20752   c-0.29883,1.79541-0.77051,3.4834-1.44238,5.0415c-1.06152-4.01074-2.38281-6.87793-4.49219-9.73047   c-1.07812-1.45898-2.22168-2.89404-3.32715-4.28174c-0.47852-0.60059-0.96484-1.21289-1.44824-1.82812   C36.26367,45.53271,36.29883,45.44971,36.30957,45.35645z M45.33789,84.146c-3.56836-0.91797-4.61719-5.229-4.08008-8.84619   c0.18066-1.21533,0.41211-2.4292,0.63672-3.60254c0.84668-4.43213,1.72266-9.01514-0.24609-13.88477   c-1.06836-2.6416-3.14844-4.56982-5.16113-6.43457c-0.50488-0.46826-1.00586-0.93213-1.48145-1.40088   c-1.98145-1.95459-3.05957-3.09033-4.84473-4.97168l-0.46484-0.48975c-2.32031-2.44336-2.08105-5.72363-1.64258-7.6875   c0.51855,0.83105,1.01465,1.67676,1.50195,2.50537c0.99609,1.69434,2.02637,3.44629,3.24023,5.08789   c1.0752,1.45459,2.21582,2.88525,3.31836,4.26904c1.09473,1.37354,2.22656,2.79395,3.28418,4.22363   C41.4541,55.6958,42.70996,58.5,43.7334,62.59375c0.86133,3.44336,1.17188,6.25244,1.64258,10.50439l0.26367,2.35498   c0.48828,4.30029,2.49805,7.39307,3.62695,8.82959C48.61426,84.51709,47.40625,84.67773,45.33789,84.146z M61.23828,80.82178   c-0.60449,0.8877-1.44922,1.28076-2.23828,1.43896c1.24609-1.61426,1.79395-3.71289,1.58398-6.12598   c-0.12305-1.41553-0.38086-2.854-0.62988-4.24512c-0.58984-3.29443-1.14746-6.40576-0.12402-9.39307   c0.11621-0.33887,0.27734-0.66895,0.46973-0.99219c-0.06543,3.46338,0.46094,8.03564,1.18848,10.63281   C62.28516,74.98779,62.63867,78.76611,61.23828,80.82178z M61.08008,57.42188c-0.50586,0.53271-1.01562,1.07422-1.48633,1.64355   c0.1543-1.11328,0.54688-2.46484,1.43555-3.90527c2.15723-3.49512,2.28809-7.53027,2.29297-7.70068   c0.01465-0.55176-0.4209-1.01123-0.97363-1.02588c-0.51855-0.02881-1.01172,0.41943-1.02637,0.97314   c-0.00098,0.03613-0.11816,3.66162-1.99414,6.70312c-2.68945,4.3584-1.61426,8.18945-1.56738,8.35059   c0.00098,0.00244,0.00293,0.00439,0.00391,0.00732c-0.92383,3.27539-0.35254,6.57617,0.2207,9.77441   c0.25293,1.40967,0.49121,2.74072,0.60645,4.06543c0.18555,2.14648-0.3584,3.94189-1.57324,5.19287   c-1.31055,1.3501-3.37109,2.04346-5.81738,1.97949c-0.46484-0.53955-1.48145-1.84375-2.33105-3.74902   c0.03906-0.06055,0.08691-0.11279,0.11328-0.18311c0.13379-0.35645,3.2627-8.77734,3.78613-13.08936   c0.16895-1.39697,0.26367-2.74805,0.31445-4.03857c0.04297-0.03564,0.0957-0.05566,0.13379-0.09961   c0.1709-0.1958,4.17188-4.86035,4.44336-9.85986c0.07031-1.29102,0.22266-2.89209,0.41699-4.57422   c0.5332-0.9458,3.49609-6.15479,5.10352-7.87207c0.37695-0.40283,0.35645-1.03613-0.04688-1.41309   c-0.40332-0.37793-1.03613-0.35742-1.41406,0.04688c-0.83789,0.89502-1.95508,2.55566-2.96387,4.16797   c0.4248-2.79639,0.87402-5.18652,1.16602-6.02832c0.18164-0.52197-0.09473-1.0918-0.61621-1.27295   c-0.51758-0.18066-1.09082,0.09424-1.27246,0.61572c-0.74023,2.12793-2.11328,11.52686-2.36914,16.22119   c-0.13867,2.53467-1.46875,5.06152-2.5498,6.72754c-0.03223-1.48682-0.11621-2.81348-0.21387-3.89209   c-0.34082-3.73877,0.92871-20.10791,4.29199-22.20996c2.35352-1.47168,4.05469-2.53662,5.16211-2.26123   c0.59375,0.146,1.18359,0.73145,1.80469,1.79053c1.8877,3.21973,2.29492,17.95703-1.35938,22.95215   C62.32422,56.11133,61.71973,56.74805,61.08008,57.42188z M73.56738,34.79248c-0.49609,3.50732-1.21387,6.55713-2.19434,9.32373   l-0.2041,0.58105c-0.56055,1.59766-1.13867,3.25-2.05957,4.62256c-0.69043,1.02881-1.61035,1.80664-2.60449,2.46191   c0.6709-2.56885,1.02441-5.57715,1.10449-8.51318c0.03906-0.03516,0.08789-0.05322,0.12109-0.09521   c0.87891-1.09082,1.60254-2.23975,2.15234-3.41455c0.8291-1.77686,0.82812-3.59717,0.82715-5.35742   c-0.00098-0.67578-0.00098-1.31396,0.04395-1.94824l0.05469-0.84961c0.10352-1.65723,0.21094-3.37061,0.69336-4.81689   c0.17383-0.52393-0.10938-1.09033-0.63281-1.26465c-0.52832-0.17676-1.0918,0.10889-1.26562,0.63281   c-0.56348,1.69336-0.68457,3.62207-0.79102,5.32373l-0.05371,0.83496c-0.0498,0.70459-0.0498,1.40869-0.04883,2.08887   c0.00098,1.61279,0.00195,3.13623-0.63965,4.50977c-0.14648,0.31445-0.31348,0.62646-0.48926,0.93701   c-0.16699-3.61133-0.76367-6.76367-1.69629-8.354c-0.05664-0.09717-0.11523-0.18359-0.17188-0.27539   c0.03223-0.06445,0.06836-0.12549,0.08691-0.19824c0.05762-0.22803,1.39258-5.62744,0.92188-9.12109   c-0.07324-0.54736-0.56543-0.93018-1.125-0.85791c-0.54688,0.07373-0.93066,0.57715-0.85742,1.12451   c0.29883,2.22119-0.26855,5.49902-0.62402,7.21826c-0.40332-0.29639-0.82812-0.5-1.28223-0.61182   c-0.43164-0.10547-0.86816-0.11328-1.31445-0.06104c0.32324-2.60986,0.83301-7.646,0.17578-9.13916   c-0.22168-0.50488-0.81055-0.73535-1.31738-0.5127c-0.50586,0.22266-0.73535,0.8125-0.5127,1.31836   c0.36328,0.8252,0.05078,5.29297-0.44922,9.00537c-0.17773,0.08496-0.35547,0.16748-0.53906,0.26514   c-0.66211-1.66211-1.79102-4.87744-1.79102-6.71533c0-0.55225-0.44727-1-1-1s-1,0.44775-1,1   c0,2.50879,1.53906,6.48877,2.04395,7.72803c-0.32031,0.19727-0.65234,0.4043-0.99609,0.61914   c-0.37598,0.23486-0.72266,0.57227-1.04883,0.979c-0.76074-1.54736-2.04785-3.44043-3.85254-4.86426   c1.18457-3.99072,3.64551-12.25684,8.35254-12.25586c3.59277,0.00098,7.56836,2.03467,9.91504,4.04932   C73.26465,22.42529,74.5957,27.52881,73.56738,34.79248z"/></g><text x="0" y="115" fill="#000000" font-size="5px" font-weight="bold" font-family="'Helvetica Neue', Helvetica, Arial-Unicode, Arial, Sans-serif">Created by Yu luck</text><text x="0" y="120" fill="#000000" font-size="5px" font-weight="bold" font-family="'Helvetica Neue', Helvetica, Arial-Unicode, Arial, Sans-serif">from the Noun Project</text></svg>