<svg xmlns="http://www.w3.org/2000/svg" viewBox="0 0 64 80" x="0px" y="0px"><g><path d="M45.105,17H52a1,1,0,0,0,.707-.293l9-9A1,1,0,0,0,61,6H40.414l2.293-2.293A1,1,0,0,0,42,2H30.5A7.508,7.508,0,0,0,23,9.5a6.991,6.991,0,0,0,.077,1.013,7.838,7.838,0,0,0,.47,2.02L31.78,34.241,21.259,31.5A15.225,15.225,0,0,0,8.02,34.215,15.515,15.515,0,0,0,17.4,62H50.855A11.19,11.19,0,0,0,62,50.788c0-.065,0-.129-.008-.262.005-.058.008-.117.008-.175v-.537a11.681,11.681,0,0,0-1.521-5.755ZM60,50.788A9.19,9.19,0,0,1,50.855,60H17.4A13.516,13.516,0,0,1,9.242,35.8,13.256,13.256,0,0,1,17.371,33a13.429,13.429,0,0,1,3.384.436l12.4,3.226.02,0v0l9.6,2.3.466-1.946-9.084-2.18L25.417,11.825a5.965,5.965,0,0,1-.355-1.551A5.453,5.453,0,0,1,30.5,4h9.086L37.293,6.293A1,1,0,0,0,38,8H58.586l-7,7H37v2h5.805l1.7,3H39v2h6.646l1.7,3H42v2h6.487l1.7,3H45v2h6.327l1.7,3H48v2h6.168l4.572,8.047A9.673,9.673,0,0,1,60,49.814l0,.571c0,.032-.008.157-.008.188Z"/><rect x="21" y="51" width="2" height="2"/><rect x="12" y="41" width="2" height="2"/><rect x="34" y="22" width="2" height="2"/><rect x="41" y="53" width="2" height="2"/><rect x="52" y="49" width="2" height="2"/><rect x="27" y="43" width="2" height="2"/></g><text x="0" y="79" fill="#000000" font-size="5px" font-weight="bold" font-family="'Helvetica Neue', Helvetica, Arial-Unicode, Arial, Sans-serif">Created by monkik</text><text x="0" y="84" fill="#000000" font-size="5px" font-weight="bold" font-family="'Helvetica Neue', Helvetica, Arial-Unicode, Arial, Sans-serif">from the Noun Project</text></svg>