<svg xmlns="http://www.w3.org/2000/svg" xmlns:xlink="http://www.w3.org/1999/xlink" xml:space="preserve" version="1.1" style="shape-rendering:geometricPrecision;text-rendering:geometricPrecision;image-rendering:optimizeQuality;" viewBox="0 0 50000 62500" x="0px" y="0px" fill-rule="evenodd" clip-rule="evenodd"><defs><style type="text/css">
   
    .fil0 {fill:black;fill-rule:nonzero}
   
  </style></defs><g><g><path class="fil0" d="M4796 25689c0,-1623 508,-3129 1327,-4228 828,-1111 1976,-1811 3246,-1811 1275,0 2424,672 3251,1759 811,1066 1312,2533 1312,4150 0,711 -97,1394 -276,2028 -185,658 -458,1262 -801,1787l-472 -306c312,-478 561,-1029 731,-1633 164,-583 254,-1215 254,-1876 0,-1491 -457,-2837 -1196,-3808 -722,-950 -1714,-1537 -2803,-1537 -1082,0 -2071,611 -2794,1582 -750,1006 -1215,2392 -1215,3893l-564 0z"/><path class="fil0" d="M11074 20358c413,-805 974,-1472 1633,-1934 647,-453 1386,-710 2172,-710 1131,0 2163,530 2960,1410 794,876 1353,2102 1537,3493l-558 72c-169,-1275 -677,-2394 -1395,-3188 -692,-763 -1579,-1222 -2544,-1222 -668,0 -1297,219 -1850,606 -584,409 -1084,1005 -1454,1729l-501 -256z"/><path class="fil0" d="M16527 18534c407,-836 974,-1530 1644,-2013 658,-474 1414,-743 2218,-743 1133,0 2168,533 2965,1416 794,879 1353,2109 1534,3504l-558 71c-166,-1279 -673,-2402 -1392,-3198 -692,-766 -1582,-1228 -2549,-1228 -683,0 -1327,230 -1889,634 -594,427 -1098,1050 -1466,1804l-507 -247z"/><path class="fil0" d="M22064 16545c409,-821 973,-1503 1639,-1976 652,-463 1400,-726 2196,-726 1126,0 2155,525 2950,1397 792,869 1352,2086 1542,3469l-558 75c-174,-1267 -683,-2377 -1401,-3165 -690,-757 -1573,-1212 -2533,-1212 -675,0 -1312,225 -1870,621 -589,418 -1091,1028 -1460,1768l-505 -251z"/><path class="fil0" d="M27569 14620c410,-825 974,-1509 1640,-1984 653,-465 1403,-729 2200,-729 1123,0 2148,522 2943,1390 792,866 1353,2077 1546,3453l-558 77c-177,-1262 -686,-2367 -1403,-3151 -689,-752 -1570,-1205 -2528,-1205 -677,0 -1315,226 -1874,624 -590,420 -1093,1033 -1461,1774l-505 -249z"/><path class="fil0" d="M14017 30066c-67,-280 -119,-587 -154,-899 -37,-322 -55,-651 -55,-959 0,-1617 501,-3084 1312,-4150 827,-1087 1976,-1759 3251,-1759 1275,0 2424,672 3251,1759 811,1066 1312,2533 1312,4150 0,371 -40,791 -106,1205 -71,448 -172,884 -282,1238l-538 -168c104,-332 198,-741 264,-1159 61,-379 98,-768 98,-1116 0,-1491 -457,-2837 -1196,-3808 -722,-949 -1714,-1537 -2803,-1537 -1090,0 -2081,588 -2803,1537 -739,971 -1196,2317 -1196,3808 0,294 17,601 51,898 32,292 80,576 141,828l-547 132z"/><path class="fil0" d="M20043 23072c409,-823 973,-1506 1639,-1980 653,-465 1402,-729 2199,-729 1275,0 2424,673 3251,1760 811,1065 1312,2532 1312,4149 0,337 -22,698 -64,1050 -41,341 -102,674 -180,973l-545 -143c71,-270 127,-577 165,-896 39,-328 60,-666 60,-984 0,-1491 -457,-2837 -1196,-3808 -722,-949 -1713,-1536 -2803,-1536 -677,0 -1314,225 -1872,622 -590,420 -1093,1031 -1461,1773l-505 -251z"/><path class="fil0" d="M25627 21027c421,-805 973,-1450 1614,-1896 640,-446 1370,-693 2148,-702 78,-1 -7,-2 41,-2 1271,0 2401,665 3215,1738 797,1049 1289,2493 1308,4080 1,93 1,59 1,91 0,285 -16,567 -46,847 -31,280 -78,556 -139,826l-549 -124c55,-246 98,-501 128,-764 27,-253 42,-515 42,-785 0,-92 1,-52 1,-86 -17,-1464 -467,-2789 -1193,-3746 -709,-933 -1682,-1512 -2768,-1512 -73,0 15,-2 -37,-1 -658,7 -1280,220 -1830,603 -569,395 -1060,972 -1438,1693l-498 -260z"/><path class="fil0" d="M31111 19107c414,-798 973,-1458 1630,-1914 643,-448 1378,-701 2160,-701 1275,0 2424,672 3251,1759 811,1066 1313,2533 1313,4149 0,185 -7,371 -21,558 -13,187 -33,371 -60,551l-558 -81c25,-168 44,-338 56,-510 12,-167 18,-339 18,-518 0,-1491 -457,-2836 -1195,-3807 -723,-950 -1714,-1537 -2804,-1537 -662,0 -1288,217 -1838,600 -582,404 -1081,994 -1452,1709l-500 -258z"/><path class="fil0" d="M36643 17130c414,-786 972,-1435 1625,-1884 640,-441 1369,-690 2143,-690 1275,0 2424,672 3251,1759 811,1066 1313,2533 1313,4150 0,101 -3,214 -9,339 -5,126 -12,238 -21,338l-562 -49c10,-115 17,-220 21,-313 4,-92 6,-197 6,-315 0,-1491 -457,-2837 -1195,-3808 -723,-949 -1714,-1537 -2804,-1537 -657,0 -1277,213 -1823,589 -578,397 -1075,977 -1447,1683l-498 -262z"/><path class="fil0" d="M5471 23643l-2543 823 15736 7389 28426 -11901 -2739 -1040 198 -527 4060 1542c-9985,4180 -19971,8361 -29957,12542 -5751,-2701 -11502,-5401 -17253,-8101l3900 -1263 172 536z"/><polygon class="fil0" points="37338,16524 35158,15627 35372,15107 37551,16004 "/><path class="fil0" d="M1966 24374l-11 1677 2964 1412 -8 186c-68,1698 435,3033 1197,3977 520,644 1162,1105 1824,1375 654,266 1325,345 1913,225 547,-111 1025,-396 1350,-863l142 -205 2353 1248 0 170c2,1387 640,2431 1563,3096 579,417 1272,686 1991,799 722,113 1469,68 2158,-145 1126,-346 2095,-1144 2524,-2434l172 -515 322 437c296,401 705,648 1166,756 424,100 894,85 1364,-33 478,-119 955,-344 1386,-662 727,-536 1318,-1336 1554,-2336l91 -388 335 215c367,236 737,403 1102,507 726,208 1432,165 2055,-85 626,-251 1172,-711 1574,-1337 218,-339 394,-728 517,-1160l106 -371 322 215c359,239 748,396 1145,477 671,138 1370,60 1998,-196 626,-256 1179,-689 1562,-1262 225,-338 392,-724 479,-1152l88 -427 352 255c422,304 947,447 1496,429 468,-15 953,-147 1409,-397 460,-251 890,-622 1244,-1112 587,-815 963,-1961 914,-3441l-6 -192 3361 -1438 -8 -1758 562 -2 10 2132 -3353 1433c15,1524 -395,2723 -1024,3595 -405,561 -900,987 -1431,1277 -534,292 -1106,447 -1660,466 -532,17 -1048,-92 -1501,-326 -111,352 -269,677 -464,971 -448,670 -1092,1175 -1819,1471 -726,297 -1538,386 -2322,226 -352,-73 -699,-195 -1029,-373 -127,350 -287,672 -474,965 -466,725 -1104,1260 -1838,1555 -738,295 -1570,348 -2420,105 -307,-88 -617,-215 -926,-383 -316,970 -931,1752 -1668,2296 -490,362 -1035,618 -1582,755 -556,139 -1117,156 -1629,35 -436,-102 -836,-303 -1170,-611 -552,1226 -1564,2000 -2721,2356 -770,238 -1604,288 -2408,162 -806,-126 -1582,-428 -2235,-898 -1023,-736 -1740,-1876 -1793,-3381l-1626 -862c-402,474 -942,769 -1549,892 -698,142 -1481,54 -2236,-254 -746,-303 -1467,-822 -2051,-1545 -811,-1004 -1356,-2403 -1325,-4164l-2953 -1407 13 -2036 562 3z"/><polygon class="fil0" points="4429,27229 18666,34137 46383,22390 46602,22908 18650,34755 4184,27736 "/></g></g><text x="0" y="50015" fill="#000000" font-size="5px" font-weight="bold" font-family="'Helvetica Neue', Helvetica, Arial-Unicode, Arial, Sans-serif">Created by Oleksandr Panasovskyi</text><text x="0" y="50020" fill="#000000" font-size="5px" font-weight="bold" font-family="'Helvetica Neue', Helvetica, Arial-Unicode, Arial, Sans-serif">from the Noun Project</text></svg>