<svg xmlns="http://www.w3.org/2000/svg" xmlns:xlink="http://www.w3.org/1999/xlink" xml:space="preserve" version="1.1" style="shape-rendering:geometricPrecision;text-rendering:geometricPrecision;image-rendering:optimizeQuality;" viewBox="0 0 883.41 990.05" x="0px" y="0px" fill-rule="evenodd" clip-rule="evenodd"><defs><style type="text/css">
   
    .fil0 {fill:black}
   
  </style></defs><g><path class="fil0" d="M699.9 240.5c58.07,-1.12 227.12,94.14 172.95,129.65 -8.14,5.34 -60.05,8.52 -121.35,9.62 -9.46,83.8 -57.24,257.61 -280.85,403.7 -38.45,25.14 -88.57,-8.8 -79.13,-53.99 2.72,-13.01 10.39,-24.97 22.36,-32.8 182.4,-119.17 224.6,-251.35 233.87,-316.98 -60.96,-1.17 -112.52,-4.38 -120.8,-9.56 -51.34,-32.16 122.73,-128.69 172.96,-129.65zm-245.02 -240.49c73.67,-1.42 288.12,119.42 219.4,164.47 -10.86,7.12 -83.13,11.22 -166.08,12.4 6.14,77.09 -22.89,228.54 -59.63,325.71 -34.09,90.15 -84.95,177.9 -157.1,245.9 -33.34,31.42 -88.63,6.83 -87.23,-39.25 0.4,-13.28 5.86,-26.39 16.26,-36.18 95.97,-90.47 148.01,-227.76 171.34,-351.21 10.63,-56.23 9.63,-91.73 13.1,-144.97 -84.23,-1.2 -158.25,-5.36 -169.48,-12.39 -65.13,-40.8 155.69,-163.25 219.41,-164.47zm27.37 177.15c-17.03,0.12 -34.28,0.11 -51.33,-0.01 -6.34,49.95 -2.86,92.53 -13.62,149.46 -24.42,129.2 -78.74,270.73 -179.05,365.3 -24.84,23.42 10.7,61.08 35.49,37.71 109.57,-103.27 168.69,-254.81 194.57,-396.37 13.99,-76.51 15.97,-137.63 13.94,-156.1zm-300.41 20.42c57.9,-1.11 226.46,93.86 172.44,129.27 -7.9,5.18 -57.19,8.33 -116.19,9.5 16.94,100.84 16.08,258.86 -104.07,396.25 -30.3,34.64 -87.49,15.19 -90.57,-30.62 -0.88,-13.2 3.29,-26.75 12.7,-37.51 100.97,-115.45 93.45,-250.57 77.13,-328.03 -62.26,-1.11 -115.48,-4.33 -123.89,-9.59 -51.3,-32.13 122.2,-128.3 172.45,-129.27zm30.24 139.17c-17.31,0.17 -35.06,0.18 -52.48,0.04 16.48,83.63 21.52,224.09 -83.98,344.72 -22.39,25.59 16.56,59.64 38.93,34.07 115.19,-131.71 114.29,-283.63 97.53,-378.83zm513.53 43.37c-17.23,0.14 -34.81,0.13 -52.04,-0.03 -9.41,70.4 -53.22,212.68 -245.5,338.31 -28.57,18.68 -0.21,62.09 28.39,43.39 213.13,-139.25 259.67,-302.34 269.15,-381.67z"/></g><text x="0" y="807.04" fill="#000000" font-size="5px" font-weight="bold" font-family="'Helvetica Neue', Helvetica, Arial-Unicode, Arial, Sans-serif">Created by Dong Ik Seo</text><text x="0" y="812.04" fill="#000000" font-size="5px" font-weight="bold" font-family="'Helvetica Neue', Helvetica, Arial-Unicode, Arial, Sans-serif">from the Noun Project</text></svg>