<svg xmlns="http://www.w3.org/2000/svg" data-name="Layer 1" viewBox="0 0 60 75" x="0px" y="0px"><title>icon</title><path d="M16.00391,15.73926a3.41539,3.41539,0,0,0-1.751,6.60254,3.44549,3.44549,0,0,0,.88135.11523A3.416,3.416,0,0,0,16.00391,15.73926Zm1.459,3.9209a2.41412,2.41412,0,1,1-.24561-1.833A2.39814,2.39814,0,0,1,17.46289,19.66016Z"/><path d="M36.65039,7.71777a3.41528,3.41528,0,1,0-3.415,3.416A3.41891,3.41891,0,0,0,36.65039,7.71777Zm-5.83057,0a2.41528,2.41528,0,1,1,2.41553,2.416A2.41771,2.41771,0,0,1,30.81982,7.71777Z"/><path d="M44.30518,23.35547a3.41556,3.41556,0,0,0,.23047,6.82324c0.07715,0,.15479-0.00293.23291-0.00781A3.41558,3.41558,0,1,0,44.30518,23.35547Zm0.39551,5.81738a2.41521,2.41521,0,1,1-.32715-4.81934q0.08276-.00586.16553-0.00586A2.41538,2.41538,0,0,1,44.70068,29.17285Z"/><path d="M51.2373,24.07324a3.41376,3.41376,0,0,0-3.69287-2.10254,3.41373,3.41373,0,0,0-6.63477.4502A3.45262,3.45262,0,0,0,37.53516,25.002,3.416,3.416,0,0,0,38.87659,28.617a19.21759,19.21759,0,0,0-6.0885,5.64557l-1.60077-.40271a103.06839,103.06839,0,0,1,.81238-11.63617,3.41074,3.41074,0,0,0,4.6004-3.76764,0.50013,0.50013,0,0,0-.2417-0.34668,3.43227,3.43227,0,0,0-3.76245.22937c0.27881-1.56323.611-3.13794,1.00323-4.70221a3.40311,3.40311,0,0,0,5.01605-4.16779,3.41487,3.41487,0,0,0-2.05518-6.32812,3.41362,3.41362,0,0,0-6.6499,0,3.4148,3.4148,0,0,0-2.05469,6.32813,3.40256,3.40256,0,0,0,4.66229,4.37292,77.99744,77.99744,0,0,0-1.5968,8.93512,3.39131,3.39131,0,0,0-4.42828-.88715,0.50013,0.50013,0,0,0-.2417.34668,3.42845,3.42845,0,0,0,1.228,3.25391,3.36027,3.36027,0,0,0,3.0965.60651c-0.24084,2.77014-.34851,5.32935-0.38446,7.51245l-1.21863-.30652A0.47529,0.47529,0,0,0,28.959,33.248a31.99028,31.99028,0,0,0-8.69714-11.28363,3.40772,3.40772,0,0,0-.74622-6.49664,3.41355,3.41355,0,0,0-6.42773-1.7041,3.41487,3.41487,0,0,0-3.6084,5.58984,3.41165,3.41165,0,0,0,4.20166,5.15332,3.39988,3.39988,0,0,0,6.20166-1.55255,30.87,30.87,0,0,1,7.82245,10.0296l-2.94061-.73975A1.55471,1.55471,0,0,0,22.85547,34.041L26.71,54.50293a1.5575,1.5575,0,0,0,1.5293,1.26758H28.896v1.89844a0.5,0.5,0,0,0,1,0V55.77051h0.28516V59a0.5,0.5,0,0,0,1,0V55.77051h0.18311v0.69922a0.5,0.5,0,0,0,1,0V55.77051h0.39551a1.56271,1.56271,0,0,0,1.52295-1.2373l3.65137-17.43457a1.55355,1.55355,0,0,0-1.14307-1.8291l-2.9541-.74316a18.23209,18.23209,0,0,1,5.29285-4.88306,3.40407,3.40407,0,0,0,5.7926,2.762,3.41,3.41,0,0,0,5.10107-4.25977A3.41983,3.41983,0,0,0,51.2373,24.07324Zm-15.59277-5.208a2.43062,2.43062,0,0,1-.89844,2.06543,2.39286,2.39286,0,0,1-1.89618.49438l0.91278-.637a0.5001,0.5001,0,0,0-.57227-0.82031l-0.91089.63562a2.40278,2.40278,0,0,1,.85522-1.42566A2.42886,2.42886,0,0,1,35.64453,18.86523ZM29.57861,12.752a2.415,2.415,0,0,1-.62256-3.23633,0.5002,0.5002,0,0,0-.23779-0.73242,2.41323,2.41323,0,0,1,1.48828-4.58008,0.49983,0.49983,0,0,0,.62354-0.4541,2.41044,2.41044,0,0,1,4.81006,0,0.49983,0.49983,0,0,0,.62354.4541A2.41329,2.41329,0,0,1,37.75244,8.7832a0.5002,0.5002,0,0,0-.23779.73242,2.40823,2.40823,0,0,1-3.88916,2.82422,0.498,0.498,0,0,0-.38623-0.18359h-0.001a0.5009,0.5009,0,0,0-.38623.18262A2.40784,2.40784,0,0,1,29.57861,12.752Zm-1.47217,11.96a2.43086,2.43086,0,0,1-.8999-2.06641,2.43064,2.43064,0,0,1,2.51025.3125,2.40424,2.40424,0,0,1,.85413,1.42432l-0.91028-.63525a0.5001,0.5001,0,0,0-.57227.82031l0.91412,0.63794A2.39081,2.39081,0,0,1,28.10645,24.71191ZM18.80371,21.875a2.40774,2.40774,0,0,1-4.48242,1.73242,0.50272,0.50272,0,0,0-.32666-0.27734,0.52743,0.52743,0,0,0-.12891-0.0166,0.49778,0.49778,0,0,0-.29248.09473,2.41047,2.41047,0,0,1-3.0415-3.72754,0.49919,0.49919,0,0,0-.04248-0.76758,2.41326,2.41326,0,0,1,2.6123-4.0459,0.4902,0.4902,0,0,0,.42529.0293,0.499,0.499,0,0,0,.29395-0.30859,2.41039,2.41039,0,0,1,4.64941,1.23242,0.49978,0.49978,0,0,0,.48682.59863,2.41372,2.41372,0,0,1,.26416,4.80957A0.49973,0.49973,0,0,0,18.80371,21.875ZM36.95557,36.89355L33.3042,54.32813a0.55929,0.55929,0,0,1-.54443.44238H28.23926a0.5571,0.5571,0,0,1-.54687-0.45312L23.83789,33.85547a0.55758,0.55758,0,0,1,.54248-0.66016,0.53424,0.53424,0,0,1,.14014.01855l12.02637,3.02539A0.55674,0.55674,0,0,1,36.95557,36.89355Zm12.16016-9.373a0.49971,0.49971,0,0,0-.1875.74609,2.408,2.408,0,0,1-3.68848,3.08105,0.48926,0.48926,0,0,0-.39844-0.15723,0.49924,0.49924,0,0,0-.37354.209,2.41067,2.41067,0,0,1-4.07812-2.55273,0.49988,0.49988,0,0,0-.28711-0.71387,2.41318,2.41318,0,0,1,1.17432-4.67187,0.49927,0.49927,0,0,0,.5918-0.49512,2.41039,2.41039,0,0,1,4.79883-.32617,0.50082,0.50082,0,0,0,.65332.41113A2.41366,2.41366,0,0,1,49.11572,27.52051Z"/><text x="0" y="75" fill="#000000" font-size="5px" font-weight="bold" font-family="'Helvetica Neue', Helvetica, Arial-Unicode, Arial, Sans-serif">Created by Josh Sorosky</text><text x="0" y="80" fill="#000000" font-size="5px" font-weight="bold" font-family="'Helvetica Neue', Helvetica, Arial-Unicode, Arial, Sans-serif">from the Noun Project</text></svg>