<svg xmlns="http://www.w3.org/2000/svg" xmlns:xlink="http://www.w3.org/1999/xlink" version="1.1" x="0px" y="0px" viewBox="0 0 60 75" enable-background="new 0 0 60 60" xml:space="preserve"><path d="M55.016,38.114H4.982c-1.3,0-2.354,1.056-2.354,2.355c0,1.302,1.055,2.356,2.354,2.356h3.957  c0.472,1.436,2.902,2.998,5.678,2.998c1.536,0,29.229,0,30.765,0c2.775,0,5.205-1.562,5.677-2.998h3.957  c1.302,0,2.356-1.054,2.356-2.356C57.372,39.169,56.317,38.114,55.016,38.114z"/><path d="M9.417,35.978h41.618c0,0-0.7-6.33-7.664-11.792c0.067-0.316,0.109-0.63,0.113-0.938l5.215-2.431  c0.184,0.341,0.435,0.659,0.77,0.918c1.14,0.887,2.696,0.792,3.476-0.212c0.778-1.003,0.486-2.534-0.655-3.42  c-0.229-0.179-0.477-0.306-0.729-0.406c0.087-0.257,0.148-0.528,0.159-0.817c0.055-1.445-0.93-2.653-2.198-2.701  c-1.27-0.049-2.343,1.082-2.397,2.525c-0.017,0.423,0.064,0.82,0.209,1.18l-5.215,2.431c-2.109-1.717-6.241-1.769-9.54-0.231  c-2.812,1.312-4.258,3.425-4.393,5.586l-0.017-0.004c-0.715-2.756,0.494-5.653,3.552-7.136c-2.616-0.739-5.581-1.325-8.949-1.693  C9.709,15.411-0.821,30.636,9.417,35.978z"/><text x="0" y="75" fill="#000000" font-size="5px" font-weight="bold" font-family="'Helvetica Neue', Helvetica, Arial-Unicode, Arial, Sans-serif">Created by Bin Bon</text><text x="0" y="80" fill="#000000" font-size="5px" font-weight="bold" font-family="'Helvetica Neue', Helvetica, Arial-Unicode, Arial, Sans-serif">from the Noun Project</text></svg>